<svg width="147" height="40" viewBox="0 0 147 40" fill="none" xmlns="http://www.w3.org/2000/svg">
<rect x="0.5" y="0.5" width="146" height="39" rx="7.5" fill="white"/>
<rect x="0.5" y="0.5" width="146" height="39" rx="7.5" stroke="black"/>
<path d="M64.7516 20.3987H66.7715V31.3885H64.7516V20.3987Z" fill="black"/>
<path d="M42.5 25.9699C42.5 22.8811 44.8314 20.4009 48.039 20.4009C50.2816 20.4009 52.0489 21.5444 52.9695 23.1779L51.1875 24.2473C50.5193 23.0146 49.4799 22.3611 48.054 22.3611C46.0343 22.3611 44.5047 23.9946 44.5047 25.9699C44.5047 27.9745 46.0196 29.5786 48.1281 29.5786C49.7469 29.5786 50.8757 28.6578 51.2616 27.2322H47.8017V25.3017H53.4298V26.1037C53.4298 29.0289 51.3657 31.5392 48.1281 31.5392C44.7423 31.5392 42.5 28.9695 42.5 25.9699Z" fill="black"/>
<path d="M54.3525 27.0543C54.3525 24.1732 56.4613 22.525 58.6592 22.525C59.8027 22.525 60.8274 22.9999 61.4512 23.7426V22.7032H63.4558V31.3907H61.4512V30.2616C60.8124 31.0636 59.773 31.5689 58.6295 31.5689C56.5354 31.5689 54.3525 29.8904 54.3525 27.0543ZM61.555 27.0246C61.555 25.5543 60.4412 24.3514 58.9562 24.3514C57.4713 24.3514 56.3278 25.5249 56.3278 27.0246C56.3278 28.539 57.4713 29.7272 58.9562 29.7272C60.4412 29.7272 61.555 28.5243 61.555 27.0246Z" fill="black"/>
<path d="M67.7938 27.0543C67.7938 24.1732 69.9026 22.525 72.1005 22.525C73.244 22.525 74.2686 22.9999 74.8925 23.7426V22.7032H76.8971V31.3907H74.8925V30.2616C74.2539 31.0636 73.2146 31.5689 72.0707 31.5689C69.977 31.5689 67.7938 29.8904 67.7938 27.0543ZM74.9966 27.0246C74.9966 25.5543 73.8828 24.3514 72.3981 24.3514C70.9128 24.3514 69.7693 25.5249 69.7693 27.0246C69.7693 28.539 70.9128 29.7272 72.3981 29.7272C73.8825 29.7272 74.9966 28.5243 74.9966 27.0246Z" fill="black"/>
<path d="M80.8048 26.9652L77.6566 22.7032H80.1072L82.0818 25.4652L84.0424 22.7032H86.4182L83.2994 26.9949L86.6261 31.3907H84.1759L82.0524 28.4949L79.988 31.3907H77.5375L80.8048 26.9652Z" fill="black"/>
<path d="M90.3846 30.9598L86.8206 22.7029H88.9588L91.3796 28.554L93.6663 22.7029H95.7757L90.5926 35.4H88.5582L90.3846 30.9598Z" fill="black"/>
<path d="M99.8907 29.5936L101.732 28.1384C102.282 29.074 103.128 29.6083 104.108 29.6083C105.178 29.6083 105.757 28.911 105.757 28.1531C105.757 27.2325 104.658 26.9505 103.499 26.594C102.044 26.1334 100.426 25.5693 100.426 23.5049C100.426 21.7676 101.94 20.4012 104.019 20.4012C105.772 20.4012 106.781 21.0697 107.658 21.9756L105.994 23.2376C105.534 22.5547 104.895 22.1982 104.034 22.1982C103.054 22.1982 102.519 22.7329 102.519 23.4305C102.519 24.292 103.559 24.5743 104.732 24.9605C106.203 25.4355 107.866 26.089 107.866 28.1681C107.866 29.8757 106.499 31.5395 104.123 31.5395C102.163 31.5392 100.871 30.7071 99.8907 29.5936Z" fill="black"/>
<path d="M108.03 22.7029H109.515V21.3812L111.535 20V22.7029H113.302V24.4999H111.535V27.7519C111.535 29.2669 111.743 29.5045 113.302 29.5045V31.3904H113.02C110.332 31.3904 109.515 30.5292 109.515 27.7672V24.4999H108.03L108.03 22.7029Z" fill="black"/>
<path d="M113.838 27.0543C113.838 24.5296 115.827 22.5247 118.337 22.5247C120.832 22.5247 122.837 24.5296 122.837 27.0543C122.837 29.5639 120.832 31.5689 118.337 31.5689C115.827 31.5689 113.838 29.5639 113.838 27.0543ZM120.862 27.0543C120.862 25.599 119.747 24.4108 118.337 24.4108C116.896 24.4108 115.812 25.599 115.812 27.0543C115.812 28.4949 116.896 29.6828 118.337 29.6828C119.747 29.6828 120.862 28.4949 120.862 27.0543Z" fill="black"/>
<path d="M125.853 22.7029V23.9949C126.254 23.1335 126.981 22.7029 128.08 22.7029C128.704 22.7029 129.223 22.8514 129.61 23.0741L128.852 24.9749C128.555 24.782 128.214 24.6334 127.649 24.6334C126.491 24.6334 125.867 25.2573 125.867 26.7569V31.3904H123.862V22.7029H125.853Z" fill="black"/>
<path d="M129.834 27.069C129.834 24.5296 131.808 22.5247 134.348 22.5247C136.932 22.5247 138.818 24.4255 138.818 26.9949V27.7519H131.749C132.017 28.9701 132.997 29.8016 134.423 29.8016C135.536 29.8016 136.413 29.1928 136.828 28.2719L138.477 29.2222C137.719 30.6186 136.353 31.5686 134.423 31.5686C131.69 31.5686 129.834 29.5786 129.834 27.069ZM131.853 26.074H136.784C136.487 24.9158 135.596 24.292 134.348 24.292C133.145 24.292 132.21 25.0196 131.853 26.074Z" fill="black"/>
<path d="M46.6989 13.974H43.9021L43.3869 15.4H42.5037L44.8221 9.02443H45.7881L48.0973 15.4H47.2141L46.6989 13.974ZM46.4597 13.2932L45.3005 10.0548L44.1413 13.2932H46.4597Z" fill="black"/>
<path d="M50.4325 14.6272L51.9965 10.3584H52.8889L50.9109 15.4H49.9357L47.9577 10.3584H48.8593L50.4325 14.6272Z" fill="black"/>
<path d="M53.4919 12.8608C53.4919 12.3456 53.5962 11.8948 53.8047 11.5084C54.0132 11.1159 54.2984 10.8123 54.6603 10.5976C55.0283 10.383 55.4362 10.2756 55.8839 10.2756C56.3255 10.2756 56.7088 10.3707 57.0339 10.5608C57.359 10.751 57.6012 10.9902 57.7607 11.2784V10.3584H58.6071V15.4H57.7607V14.4616C57.5951 14.756 57.3467 15.0014 57.0155 15.1976C56.6904 15.3878 56.3102 15.4828 55.8747 15.4828C55.427 15.4828 55.0222 15.3724 54.6603 15.1516C54.2984 14.9308 54.0132 14.6211 53.8047 14.2224C53.5962 13.8238 53.4919 13.3699 53.4919 12.8608ZM57.7607 12.87C57.7607 12.4898 57.684 12.1586 57.5307 11.8764C57.3774 11.5943 57.1688 11.3796 56.9051 11.2324C56.6475 11.0791 56.3623 11.0024 56.0495 11.0024C55.7367 11.0024 55.4515 11.076 55.1939 11.2232C54.9363 11.3704 54.7308 11.5851 54.5775 11.8672C54.4242 12.1494 54.3475 12.4806 54.3475 12.8608C54.3475 13.2472 54.4242 13.5846 54.5775 13.8728C54.7308 14.155 54.9363 14.3727 55.1939 14.526C55.4515 14.6732 55.7367 14.7468 56.0495 14.7468C56.3623 14.7468 56.6475 14.6732 56.9051 14.526C57.1688 14.3727 57.3774 14.155 57.5307 13.8728C57.684 13.5846 57.7607 13.2503 57.7607 12.87Z" fill="black"/>
<path d="M60.2703 9.53963C60.1108 9.53963 59.9759 9.48443 59.8655 9.37403C59.7551 9.26363 59.6999 9.1287 59.6999 8.96923C59.6999 8.80977 59.7551 8.67483 59.8655 8.56443C59.9759 8.45403 60.1108 8.39883 60.2703 8.39883C60.4236 8.39883 60.5524 8.45403 60.6567 8.56443C60.7671 8.67483 60.8223 8.80977 60.8223 8.96923C60.8223 9.1287 60.7671 9.26363 60.6567 9.37403C60.5524 9.48443 60.4236 9.53963 60.2703 9.53963ZM60.6751 10.3584V15.4H59.8379V10.3584H60.6751Z" fill="black"/>
<path d="M62.7552 8.59203V15.4H61.918V8.59203H62.7552Z" fill="black"/>
<path d="M63.8692 12.8608C63.8692 12.3456 63.9735 11.8948 64.182 11.5084C64.3906 11.1159 64.6758 10.8123 65.0376 10.5976C65.4056 10.383 65.8135 10.2756 66.2612 10.2756C66.7028 10.2756 67.0862 10.3707 67.4112 10.5608C67.7363 10.751 67.9786 10.9902 68.138 11.2784V10.3584H68.9844V15.4H68.138V14.4616C67.9724 14.756 67.724 15.0014 67.3928 15.1976C67.0678 15.3878 66.6875 15.4828 66.252 15.4828C65.8043 15.4828 65.3995 15.3724 65.0376 15.1516C64.6758 14.9308 64.3906 14.6211 64.182 14.2224C63.9735 13.8238 63.8692 13.3699 63.8692 12.8608ZM68.138 12.87C68.138 12.4898 68.0614 12.1586 67.908 11.8764C67.7547 11.5943 67.5462 11.3796 67.2824 11.2324C67.0248 11.0791 66.7396 11.0024 66.4268 11.0024C66.114 11.0024 65.8288 11.076 65.5712 11.2232C65.3136 11.3704 65.1082 11.5851 64.9548 11.8672C64.8015 12.1494 64.7248 12.4806 64.7248 12.8608C64.7248 13.2472 64.8015 13.5846 64.9548 13.8728C65.1082 14.155 65.3136 14.3727 65.5712 14.526C65.8288 14.6732 66.114 14.7468 66.4268 14.7468C66.7396 14.7468 67.0248 14.6732 67.2824 14.526C67.5462 14.3727 67.7547 14.155 67.908 13.8728C68.0614 13.5846 68.138 13.2503 68.138 12.87Z" fill="black"/>
<path d="M71.3284 11.2968C71.5001 10.9963 71.7516 10.751 72.0828 10.5608C72.414 10.3707 72.7912 10.2756 73.2144 10.2756C73.6683 10.2756 74.0761 10.383 74.438 10.5976C74.7999 10.8123 75.0851 11.1159 75.2936 11.5084C75.5021 11.8948 75.6064 12.3456 75.6064 12.8608C75.6064 13.3699 75.5021 13.8238 75.2936 14.2224C75.0851 14.6211 74.7968 14.9308 74.4288 15.1516C74.0669 15.3724 73.6621 15.4828 73.2144 15.4828C72.7789 15.4828 72.3956 15.3878 72.0644 15.1976C71.7393 15.0075 71.494 14.7652 71.3284 14.4708V15.4H70.4912V8.59203H71.3284V11.2968ZM74.7508 12.8608C74.7508 12.4806 74.6741 12.1494 74.5208 11.8672C74.3675 11.5851 74.1589 11.3704 73.8952 11.2232C73.6376 11.076 73.3524 11.0024 73.0396 11.0024C72.7329 11.0024 72.4477 11.0791 72.184 11.2324C71.9264 11.3796 71.7179 11.5974 71.5584 11.8856C71.4051 12.1678 71.3284 12.4959 71.3284 12.87C71.3284 13.2503 71.4051 13.5846 71.5584 13.8728C71.7179 14.155 71.9264 14.3727 72.184 14.526C72.4477 14.6732 72.7329 14.7468 73.0396 14.7468C73.3524 14.7468 73.6376 14.6732 73.8952 14.526C74.1589 14.3727 74.3675 14.155 74.5208 13.8728C74.6741 13.5846 74.7508 13.2472 74.7508 12.8608Z" fill="black"/>
<path d="M77.5456 8.59203V15.4H76.7084V8.59203H77.5456Z" fill="black"/>
<path d="M83.6645 12.686C83.6645 12.8455 83.6553 13.0142 83.6369 13.192H79.6073C79.6379 13.6888 79.8066 14.0783 80.1133 14.3604C80.4261 14.6364 80.8033 14.7744 81.2449 14.7744C81.6067 14.7744 81.9073 14.6916 82.1465 14.526C82.3918 14.3543 82.5635 14.1274 82.6617 13.8452H83.5633C83.4283 14.3298 83.1585 14.7254 82.7537 15.032C82.3489 15.3326 81.8459 15.4828 81.2449 15.4828C80.7665 15.4828 80.3371 15.3755 79.9569 15.1608C79.5827 14.9462 79.2883 14.6426 79.0737 14.25C78.859 13.8514 78.7517 13.3914 78.7517 12.87C78.7517 12.3487 78.8559 11.8918 79.0645 11.4992C79.273 11.1067 79.5643 10.8062 79.9385 10.5976C80.3187 10.383 80.7542 10.2756 81.2449 10.2756C81.7233 10.2756 82.1465 10.3799 82.5145 10.5884C82.8825 10.797 83.1646 11.0852 83.3609 11.4532C83.5633 11.8151 83.6645 12.226 83.6645 12.686ZM82.7997 12.5112C82.7997 12.1923 82.7291 11.9194 82.5881 11.6924C82.447 11.4594 82.2538 11.2846 82.0085 11.168C81.7693 11.0454 81.5025 10.984 81.2081 10.984C80.7849 10.984 80.423 11.119 80.1225 11.3888C79.8281 11.6587 79.6594 12.0328 79.6165 12.5112H82.7997Z" fill="black"/>
<path d="M89.6051 15.4828C89.1328 15.4828 88.7035 15.3755 88.3171 15.1608C87.9368 14.9462 87.6363 14.6426 87.4155 14.25C87.2008 13.8514 87.0935 13.3914 87.0935 12.87C87.0935 12.3548 87.2039 11.901 87.4247 11.5084C87.6516 11.1098 87.9583 10.8062 88.3447 10.5976C88.7311 10.383 89.1635 10.2756 89.6419 10.2756C90.1203 10.2756 90.5527 10.383 90.9391 10.5976C91.3255 10.8062 91.6291 11.1067 91.8499 11.4992C92.0768 11.8918 92.1903 12.3487 92.1903 12.87C92.1903 13.3914 92.0737 13.8514 91.8407 14.25C91.6137 14.6426 91.304 14.9462 90.9115 15.1608C90.5189 15.3755 90.0835 15.4828 89.6051 15.4828ZM89.6051 14.7468C89.9056 14.7468 90.1877 14.6763 90.4515 14.5352C90.7152 14.3942 90.9268 14.1826 91.0863 13.9004C91.2519 13.6183 91.3347 13.2748 91.3347 12.87C91.3347 12.4652 91.2549 12.1218 91.0955 11.8396C90.936 11.5575 90.7275 11.349 90.4699 11.214C90.2123 11.073 89.9332 11.0024 89.6327 11.0024C89.326 11.0024 89.0439 11.073 88.7863 11.214C88.5348 11.349 88.3324 11.5575 88.1791 11.8396C88.0257 12.1218 87.9491 12.4652 87.9491 12.87C87.9491 13.281 88.0227 13.6275 88.1699 13.9096C88.3232 14.1918 88.5256 14.4034 88.7771 14.5444C89.0285 14.6794 89.3045 14.7468 89.6051 14.7468Z" fill="black"/>
<path d="M95.9314 10.2664C96.5448 10.2664 97.0416 10.4535 97.4218 10.8276C97.8021 11.1956 97.9922 11.7292 97.9922 12.4284V15.4H97.1642V12.548C97.1642 12.0451 97.0385 11.6618 96.787 11.398C96.5356 11.1282 96.1921 10.9932 95.7566 10.9932C95.315 10.9932 94.9624 11.1312 94.6986 11.4072C94.441 11.6832 94.3122 12.085 94.3122 12.6124V15.4H93.475V10.3584H94.3122V11.076C94.4778 10.8184 94.7017 10.6191 94.9838 10.478C95.2721 10.337 95.588 10.2664 95.9314 10.2664Z" fill="black"/>
<path fill-rule="evenodd" clip-rule="evenodd" d="M9.2763 14.6655C9 15.8164 9 17.2109 9 20C9 22.7891 9 24.1836 9.2763 25.3345C10.1541 28.9909 13.0091 31.8459 16.6655 32.7237C17.8164 33 19.2109 33 22 33C24.7891 33 26.1836 33 27.3345 32.7237C30.9909 31.8459 33.8459 28.9909 34.7237 25.3345C35 24.1836 35 22.7891 35 20C35 17.2109 35 15.8164 34.7237 14.6655C33.8459 11.0091 30.9909 8.15415 27.3345 7.2763C26.1836 7 24.7891 7 22 7C19.2109 7 17.8164 7 16.6655 7.2763C13.0091 8.15415 10.1541 11.0091 9.2763 14.6655ZM25.738 16.3341L25.7914 16.5695H28.8609L28.0334 24.2828C27.8677 25.8515 26.5446 27.0421 24.9669 27.0421H19.0326C17.4549 27.0421 16.1318 25.8515 15.966 24.2826L15.1387 16.5695H18.2081L18.2617 16.3341C18.2617 14.2733 19.9385 12.5968 21.9997 12.5968C24.0609 12.5968 25.738 14.2733 25.738 16.3341ZM19.8934 16.3341L19.8331 16.5695H24.1664L24.1063 16.3341C24.1063 15.1729 23.1613 14.2281 21.9997 14.2281C20.8383 14.2281 19.8934 15.1729 19.8934 16.3341Z" fill="black"/>
</svg>
