<svg width="172" height="48" viewBox="0 0 172 48" fill="none" xmlns="http://www.w3.org/2000/svg">
<g opacity="0.6">
<path d="M26 17.902C26.1552 18.4905 26.4652 19.0267 26.8977 19.4549C27.3302 19.8831 27.8695 20.1877 28.4596 20.337H32.3001L32.4968 20.4143V30.1051H34.8932V20.4283L35.111 20.351H38.9551C39.5431 20.1977 40.0803 19.8918 40.5122 19.4642C40.9441 19.0366 41.2555 18.5025 41.4147 17.916V17.8914H26V17.902ZM109.841 17.8879H107.451V30.1332H118.393C118.911 29.9325 119.372 29.6079 119.736 29.1877C120.1 28.7674 120.355 28.2645 120.48 27.7228H109.833L109.841 17.8879ZM91.4533 20.2983C92.7253 19.9469 93.7934 18.9561 94.05 17.8809L80.6627 17.902V25.1226H91.615V27.663H83.0204C82.3652 27.8329 81.7535 28.14 81.2259 28.564C80.6983 28.988 80.2668 29.5193 79.96 30.1226H93.9762V22.7192H83.0275V20.2983H91.4533ZM132.272 30.1261H134.647V25.1999H143.284V30.1261H145.656V22.7403L132.272 22.7263V30.1261ZM55.9895 20.3264H65.1251C65.7236 20.1824 66.2711 19.8769 66.7079 19.4433C67.1447 19.0095 67.4541 18.4643 67.6022 17.8668H53.5124C53.662 18.4636 53.9718 19.0081 54.4084 19.4416C54.845 19.875 55.3917 20.181 55.9895 20.3264ZM55.9895 25.1648H65.1251C65.7232 25.0201 66.2703 24.7144 66.7071 24.2808C67.1437 23.8472 67.4533 23.3023 67.6022 22.7052H53.5124C53.6627 23.3016 53.9728 23.8457 54.4093 24.2791C54.8457 24.7125 55.3921 25.0187 55.9895 25.1648ZM55.9895 30.1332H65.1251C65.7232 29.9884 66.2703 29.6828 66.7071 29.2492C67.1437 28.8156 67.4533 28.2706 67.6022 27.6736H53.5124C53.6623 28.2701 53.9723 28.8145 54.4088 29.2479C54.8453 29.6813 55.3919 29.9874 55.9895 30.1332ZM134.384 20.3334H143.519C144.119 20.1897 144.666 19.8843 145.104 19.4506C145.541 19.0169 145.851 18.4715 146 17.8738H131.907C132.055 18.4709 132.365 19.0158 132.802 19.4494C133.238 19.883 133.786 20.1887 134.384 20.3334Z" fill="#464A4D"/>
</g>
</svg>
