<svg width="172" height="48" viewBox="0 0 172 48" fill="none" xmlns="http://www.w3.org/2000/svg">
<g opacity="0.6">
<path d="M88.7722 16.04C88.7722 17.1932 87.8433 18.1221 86.6902 18.1221C85.5368 18.1221 84.6079 17.1932 84.6079 16.04C84.6079 14.8869 85.5048 13.958 86.6902 13.958C87.8753 13.99 88.7722 14.9189 88.7722 16.04ZM80.1875 20.2362C80.1875 20.4284 80.1875 20.7488 80.1875 20.7488C80.1875 20.7488 79.1946 19.4675 77.0804 19.4675C73.589 19.4675 70.8662 22.1261 70.8662 25.8098C70.8662 29.4615 73.5568 32.1522 77.0804 32.1522C79.2266 32.1522 80.1875 30.8389 80.1875 30.8389V31.3833C80.1875 31.6396 80.3797 31.8318 80.6359 31.8318H83.2306V19.7878C83.2306 19.7878 80.8602 19.7878 80.6359 19.7878C80.3797 19.7878 80.1875 20.012 80.1875 20.2362ZM80.1875 27.956C79.707 28.6607 78.7462 29.2693 77.593 29.2693C75.5428 29.2693 73.9733 27.988 73.9733 25.8098C73.9733 23.6316 75.5428 22.3504 77.593 22.3504C78.7142 22.3504 79.739 22.991 80.1875 23.6637V27.956ZM85.1526 19.7878H88.2277V31.8318H85.1526V19.7878ZM131.086 19.4675C128.972 19.4675 127.979 20.7488 127.979 20.7488V13.99H124.904V31.8318C124.904 31.8318 127.275 31.8318 127.499 31.8318C127.755 31.8318 127.947 31.6076 127.947 31.3833V30.8389C127.947 30.8389 128.94 32.1522 131.054 32.1522C134.546 32.1522 137.269 29.4615 137.269 25.8098C137.269 22.1582 134.546 19.4675 131.086 19.4675ZM130.574 29.2372C129.389 29.2372 128.46 28.6286 127.979 27.9239V23.6316C128.46 22.991 129.485 22.3183 130.574 22.3183C132.624 22.3183 134.193 23.5996 134.193 25.7778C134.193 27.956 132.624 29.2372 130.574 29.2372ZM123.303 24.6887V31.8638H120.228V25.041C120.228 23.055 119.587 22.2542 117.857 22.2542C116.928 22.2542 115.967 22.7347 115.359 23.4394V31.8318H112.284V19.7878H114.718C114.974 19.7878 115.167 20.012 115.167 20.2362V20.7488C116.063 19.8198 117.249 19.4675 118.434 19.4675C119.779 19.4675 120.9 19.8518 121.797 20.6206C122.886 21.5175 123.303 22.6707 123.303 24.6887ZM104.82 19.4675C102.706 19.4675 101.713 20.7488 101.713 20.7488V13.99H98.6379V31.8318C98.6379 31.8318 101.008 31.8318 101.233 31.8318C101.489 31.8318 101.681 31.6076 101.681 31.3833V30.8389C101.681 30.8389 102.674 32.1522 104.788 32.1522C108.28 32.1522 111.002 29.4615 111.002 25.8098C111.034 22.1582 108.312 19.4675 104.82 19.4675ZM104.308 29.2372C103.123 29.2372 102.193 28.6286 101.713 27.9239V23.6316C102.193 22.991 103.219 22.3183 104.308 22.3183C106.358 22.3183 107.927 23.5996 107.927 25.7778C107.927 27.956 106.358 29.2372 104.308 29.2372ZM95.9793 19.4675C96.9084 19.4675 97.3888 19.6276 97.3888 19.6276V22.4785C97.3888 22.4785 94.8262 21.6136 93.2246 23.4394V31.8638H90.1495V19.7878C90.1495 19.7878 92.5199 19.7878 92.7442 19.7878C93.0004 19.7878 93.1926 20.012 93.1926 20.2362V20.7488C93.769 20.0761 95.0184 19.4675 95.9793 19.4675ZM64.0435 30.7427C63.8833 30.3584 63.723 29.9419 63.563 29.5896C63.3066 29.013 63.0504 28.4685 62.8262 27.956L62.7942 27.9239C60.5839 23.1191 58.2135 18.2502 55.7151 13.4454L55.619 13.2532C55.3627 12.7728 55.1065 12.2603 54.8502 11.7478C54.5299 11.1712 54.2096 10.5626 53.6971 9.98599C52.672 8.7047 51.1986 8 49.629 8C48.0274 8 46.586 8.7047 45.5289 9.92192C45.0484 10.4985 44.6961 11.1071 44.3758 11.6837C44.1195 12.1962 43.8632 12.7087 43.607 13.1892L43.5109 13.3814C41.0444 18.1862 38.642 23.055 36.4318 27.8599L36.3998 27.9239C36.1756 28.4364 35.9193 28.981 35.663 29.5576C35.5029 29.9099 35.3427 30.2942 35.1826 30.7107C34.7661 31.896 34.638 33.0171 34.7982 34.1702C35.1505 36.5727 36.7521 38.5907 38.9623 39.4876C39.7952 39.8398 40.66 40 41.5569 40C41.8132 40 42.1335 39.968 42.3898 39.936C43.4468 39.8078 44.5359 39.4556 45.593 38.8469C46.9063 38.11 48.1555 37.0531 49.5649 35.5156C50.9744 37.0531 52.2556 38.11 53.5369 38.8469C54.594 39.4556 55.6831 39.8078 56.7401 39.936C56.9964 39.968 57.3166 40 57.573 40C58.4699 40 59.3668 39.8398 60.1675 39.4876C62.4097 38.5907 63.9793 36.5404 64.3317 34.1702C64.5879 33.0491 64.4599 31.928 64.0435 30.7427ZM49.597 32.4084C47.8672 30.2302 46.7461 28.1802 46.3617 26.4504C46.2016 25.7137 46.1696 25.0731 46.2656 24.4965C46.3297 23.984 46.5219 23.5355 46.7782 23.1512C47.3868 22.2863 48.4118 21.7417 49.597 21.7417C50.7822 21.7417 51.8392 22.2542 52.4158 23.1512C52.672 23.5355 52.8642 23.984 52.9283 24.4965C53.0244 25.0731 52.9924 25.7458 52.8322 26.4504C52.4478 28.1482 51.3267 30.1982 49.597 32.4084ZM62.3777 33.914C62.1535 35.5796 61.0324 37.0211 59.4628 37.6616C58.6942 37.982 57.8613 38.078 57.0284 37.982C56.2276 37.8858 55.4268 37.6296 54.594 37.1491C53.4408 36.5084 52.2877 35.5156 50.9423 34.042C53.0564 31.4476 54.3377 29.0771 54.8182 26.963C55.0424 25.97 55.0744 25.0731 54.9784 24.2402C54.8502 23.4394 54.5619 22.7027 54.1135 22.0621C53.1205 20.6206 51.4548 19.7878 49.597 19.7878C47.7391 19.7878 46.0734 20.6526 45.0805 22.0621C44.632 22.7027 44.3437 23.4394 44.2156 24.2402C44.0875 25.0731 44.1195 26.002 44.3758 26.963C44.8562 29.0771 46.1696 31.4796 48.2516 34.074C46.9383 35.5476 45.7531 36.5404 44.6 37.1811C43.7671 37.6616 42.9663 37.918 42.1655 38.014C41.3007 38.11 40.4678 37.982 39.7311 37.6938C38.1615 37.0531 37.0404 35.6116 36.8162 33.946C36.7201 33.1451 36.7842 32.3444 37.1045 31.4476C37.2006 31.1271 37.3607 30.8069 37.5209 30.4224C37.7451 29.9099 38.0014 29.3654 38.2576 28.8208L38.2897 28.7568C40.4999 23.984 42.8702 19.1151 45.3367 14.3744L45.4328 14.1822C45.6891 13.7017 45.9453 13.1892 46.2016 12.7087C46.4578 12.1962 46.7461 11.7157 47.0985 11.2993C47.7712 10.5305 48.668 10.1141 49.661 10.1141C50.654 10.1141 51.5509 10.5305 52.2236 11.2993C52.576 11.7157 52.8642 12.1962 53.1205 12.7087C53.3768 13.1892 53.633 13.7017 53.8893 14.1822L53.9854 14.3744C56.4198 19.1472 58.7902 24.016 61.0004 28.7888V28.8208C61.2566 29.3333 61.4808 29.9099 61.737 30.4224C61.8973 30.8069 62.0575 31.1271 62.1535 31.4476C62.4097 32.2802 62.5059 33.0811 62.3777 33.914Z" fill="#464A4D"/>
</g>
</svg>
