<svg width="172" height="48" viewBox="0 0 172 48" fill="none" xmlns="http://www.w3.org/2000/svg">
<g opacity="0.6">
<path d="M66.0702 32.048L67.4524 28.8378C68.9459 29.9525 70.9301 30.5321 72.8919 30.5321C74.341 30.5321 75.255 29.9747 75.255 29.1276C75.2326 26.7645 66.5828 28.6149 66.5159 22.6849C66.4937 19.6753 69.1688 17.3568 72.9588 17.3568C75.2104 17.3568 77.462 17.9141 79.0672 19.1849L77.774 22.462C76.3028 21.5256 74.4746 20.8569 72.7358 20.8569C71.5541 20.8569 70.774 21.4142 70.774 22.1276C70.7962 24.4461 79.5129 23.1753 79.6021 28.8378C79.6021 31.9143 76.9939 34.0767 73.2486 34.0767C70.5064 34.0767 67.9874 33.4302 66.0702 32.048ZM119.106 27.6786C118.415 28.8824 117.122 29.7073 115.628 29.7073C113.421 29.7073 111.637 27.9238 111.637 25.7168C111.637 23.5097 113.421 21.7263 115.628 21.7263C117.122 21.7263 118.415 22.5511 119.106 23.755L122.918 21.6371C121.491 19.0957 118.749 17.3568 115.628 17.3568C111.013 17.3568 107.268 21.1021 107.268 25.7168C107.268 30.3316 111.013 34.0767 115.628 34.0767C118.771 34.0767 121.491 32.3602 122.918 29.7964L119.106 27.6786ZM81.5193 10.4236H86.2901V33.7646H81.5193V10.4236ZM124.79 10.4236V33.7646H129.561V26.7645L135.224 33.7646H141.332L134.131 25.4492L140.797 17.6912H134.956L129.561 24.134V10.4236H124.79ZM100.469 27.7232C99.7775 28.8601 98.3506 29.7073 96.7455 29.7073C94.5385 29.7073 92.755 27.9238 92.755 25.7168C92.755 23.5097 94.5385 21.7263 96.7455 21.7263C98.3506 21.7263 99.7775 22.618 100.469 23.7773V27.7232ZM100.469 17.6912V19.5861C99.6882 18.2708 97.7488 17.3568 95.7201 17.3568C91.5289 17.3568 88.2295 21.0575 88.2295 25.6945C88.2295 30.3316 91.5289 34.0767 95.7201 34.0767C97.7488 34.0767 99.6882 33.1628 100.469 31.8474V33.7424H105.239V17.6912H100.469Z" fill="#464A4D"/>
<path d="M36.5762 27.7006C36.5762 29.328 35.2609 30.6433 33.6335 30.6433C32.0061 30.6433 30.6908 29.328 30.6908 27.7006C30.6908 26.0732 32.0061 24.7579 33.6335 24.7579H36.5762V27.7006ZM38.0475 27.7006C38.0475 26.0732 39.3628 24.7579 40.9902 24.7579C42.6176 24.7579 43.9329 26.0732 43.9329 27.7006V35.0573C43.9329 36.6849 42.6176 38 40.9902 38C39.3628 38 38.0475 36.6849 38.0475 35.0573V27.7006Z" fill="#464A4D"/>
<path d="M40.9902 15.8854C39.3628 15.8854 38.0475 14.5701 38.0475 12.9427C38.0475 11.3153 39.3628 10 40.9902 10C42.6176 10 43.9329 11.3153 43.9329 12.9427V15.8854H40.9902ZM40.9902 17.3791C42.6176 17.3791 43.9329 18.6944 43.9329 20.3217C43.9329 21.9492 42.6176 23.2645 40.9902 23.2645H33.6112C31.9838 23.2645 30.6685 21.9492 30.6685 20.3217C30.6685 18.6944 31.9838 17.3791 33.6112 17.3791H40.9902Z" fill="#464A4D"/>
<path d="M52.7834 20.3218C52.7834 18.6944 54.0988 17.3791 55.7261 17.3791C57.3535 17.3791 58.6689 18.6944 58.6689 20.3218C58.6689 21.9492 57.3535 23.2645 55.7261 23.2645H52.7834V20.3218ZM51.312 20.3218C51.312 21.9492 49.9967 23.2645 48.3693 23.2645C46.7419 23.2645 45.4266 21.9492 45.4266 20.3218V12.9427C45.4266 11.3153 46.7419 10 48.3693 10C49.9967 10 51.312 11.3153 51.312 12.9427V20.3218Z" fill="#464A4D"/>
<path d="M48.3693 32.1148C49.9967 32.1148 51.312 33.4299 51.312 35.0573C51.312 36.6849 49.9967 38 48.3693 38C46.7419 38 45.4266 36.6849 45.4266 35.0573V32.1148H48.3693ZM48.3693 30.6433C46.7419 30.6433 45.4266 29.328 45.4266 27.7006C45.4266 26.0732 46.7419 24.7579 48.3693 24.7579H55.7484C57.3757 24.7579 58.6911 26.0732 58.6911 27.7006C58.6911 29.328 57.3757 30.6433 55.7484 30.6433H48.3693Z" fill="#464A4D"/>
</g>
</svg>
