<svg width="172" height="48" viewBox="0 0 172 48" fill="none" xmlns="http://www.w3.org/2000/svg">
<g opacity="0.6">
<path fill-rule="evenodd" clip-rule="evenodd" d="M21 10.5517H47.8966V37.4483H21V10.5517ZM28.8897 17.0971L33.5517 25.7937V31.4419H35.3448V25.8833L40.0069 17.0971H38.0345L35.3448 22.5661C35.1655 22.835 34.9862 23.104 34.8966 23.373C34.8449 23.5794 34.7637 23.7264 34.6868 23.8653C34.6302 23.9677 34.576 24.0657 34.5379 24.1799C34.4931 24.135 34.4707 24.0678 34.4483 24.0006C34.4259 23.9333 34.4034 23.8661 34.3586 23.8213C34.3138 23.7316 34.2914 23.6644 34.269 23.5971C34.2466 23.5299 34.2241 23.4626 34.1793 23.373V23.2833L34.0897 23.1937C34.0554 23.1252 34.0343 23.0698 34.0162 23.0224C33.9869 22.9459 33.9658 22.8904 33.9103 22.835C33.8207 22.7454 33.731 22.6557 33.731 22.5661L31.0414 17.0971H28.8897Z" fill="#464A4D"/>
<path d="M60.1793 15.7524C61.5241 15.7524 62.6897 16.111 63.5862 16.8283L62.6897 17.9041C61.8828 17.3662 61.0759 17.0076 60.0896 17.0076C58.5655 17.0076 57.4 17.8145 56.7724 19.3386C56.4138 20.2352 56.2345 21.4007 56.2345 22.9248C56.2345 24.0904 56.4138 25.0766 56.6828 25.7938C57.4 27.4973 58.5655 28.3041 60.3586 28.3041C61.3448 28.3041 62.2414 28.0352 63.0483 27.4076L63.9448 28.5731C62.7793 29.2904 61.5241 29.649 60.1793 29.649C58.5655 29.649 57.2207 29.0214 56.1448 27.6766C55.069 26.4214 54.6207 24.7179 54.6207 22.6559C54.6207 20.5938 55.1586 18.98 56.2345 17.6352C57.2207 16.4697 58.5655 15.7524 60.1793 15.7524Z" fill="#464A4D"/>
<path d="M65.2896 24.6279C65.2896 23.0141 65.6483 21.7589 66.4552 20.8624C67.2621 19.9658 68.2483 19.4279 69.5034 19.4279C70.9379 19.4279 72.1034 19.9658 72.9103 21.1313C73.5379 22.0279 73.8069 23.283 73.8069 24.8072C73.8069 26.6003 73.269 28.0348 72.2828 28.9313C71.5655 29.5588 70.669 29.9174 69.5931 29.9174C68.2483 29.9174 67.2621 29.4692 66.4552 28.483C65.6483 27.5865 65.2896 26.2417 65.2896 24.6279ZM71.5655 22.0279C71.1172 21.221 70.4896 20.7727 69.5034 20.7727C68.5172 20.7727 67.8897 21.1313 67.4414 21.8486C67.0828 22.3865 66.9931 23.283 66.9931 24.4486C66.9931 25.9727 67.1724 27.0486 67.6207 27.6761C68.069 28.3037 68.6965 28.6624 69.5931 28.6624C70.669 28.6624 71.3862 28.1244 71.7448 27.1382C71.9241 26.6003 72.0138 25.883 72.0138 24.9865C72.1034 23.6417 71.9241 22.6555 71.5655 22.0279Z" fill="#464A4D"/>
<path d="M76.6758 22.2072C76.6758 21.221 76.5862 20.4141 76.3172 19.7865L77.8414 19.4279C78.1103 19.8761 78.2 20.4141 78.2 20.8624V20.952C78.5586 20.5934 78.9172 20.2348 79.4552 19.9658C80.0827 19.6072 80.6207 19.4279 81.1586 19.4279C81.9655 19.4279 82.6828 19.7865 83.131 20.4141C83.2207 20.5934 83.4 20.8624 83.4896 21.0417C84.5655 19.9658 85.5517 19.4279 86.6276 19.4279C87.3448 19.4279 87.9724 19.6968 88.4207 20.1451C88.8689 20.683 89.1379 21.3106 89.1379 22.0279V29.4692H87.5241V22.1175C87.5241 21.1313 87.0759 20.683 86.269 20.683C85.8207 20.683 85.2828 20.8624 84.8345 21.221C84.6552 21.4003 84.2965 21.6693 83.8483 22.0279L83.669 22.2072V29.4692H81.9655V22.4761C81.9655 21.8486 81.8759 21.4003 81.6965 21.221C81.4276 20.952 81.1586 20.8624 80.7103 20.8624C79.9931 20.8624 79.1862 21.3106 78.2 22.2072V29.5588H76.6758V22.2072Z" fill="#464A4D"/>
<path d="M91.9172 15.3931L93.531 15.0345C93.7103 15.7517 93.8 16.5586 93.8 17.5448V19.7862C93.8 20.3241 93.8 20.6828 93.8 20.8621C94.6965 19.9655 95.6828 19.5172 96.669 19.5172C97.8345 19.5172 98.8207 19.9655 99.4483 20.8621C100.166 21.7586 100.524 23.0138 100.524 24.5379C100.524 26.1517 100.166 27.4069 99.4483 28.3931C98.731 29.3793 97.7448 29.8276 96.5793 29.8276C96.0414 29.8276 95.5931 29.7379 95.0552 29.469C94.5172 29.2 94.1586 28.931 93.8896 28.5724C93.8 29.0207 93.7103 29.3793 93.6207 29.6483H92.0965C92.2759 29.2 92.3655 28.3931 92.3655 27.1379V17.7241C92.2759 16.6483 92.1862 15.8414 91.9172 15.3931ZM94.5172 21.4897C94.2483 21.669 93.9793 21.9379 93.8 22.2069V27.3172C94.4276 28.1241 95.2345 28.4828 96.2207 28.4828C97.0276 28.4828 97.6552 28.2138 98.0138 27.5862C98.4621 26.869 98.731 25.8828 98.731 24.4483C98.731 23.1931 98.5517 22.2966 98.1034 21.7586C97.7448 21.2207 97.1172 20.9517 96.2207 20.9517C95.6828 20.8621 95.0552 21.0414 94.5172 21.4897Z" fill="#464A4D"/>
<path d="M102.855 16.6486C102.855 16.29 102.945 16.021 103.214 15.7521C103.483 15.4831 103.752 15.3935 104.11 15.3935C104.469 15.3935 104.738 15.4831 105.007 15.7521C105.276 16.021 105.366 16.29 105.366 16.6486C105.366 17.0073 105.276 17.2762 105.007 17.5452C104.738 17.8141 104.469 17.9038 104.11 17.9038C103.752 17.9038 103.483 17.8141 103.214 17.5452C102.945 17.2762 102.855 17.0073 102.855 16.6486ZM103.214 29.559V19.6969L104.828 19.4279V29.559H103.214Z" fill="#464A4D"/>
<path d="M108.324 22.2072C108.324 21.4899 108.324 21.0417 108.234 20.8624C108.234 20.5934 108.055 20.3244 107.876 19.8761L109.4 19.4279C109.669 19.9658 109.759 20.4141 109.759 20.952C110.745 19.9658 111.821 19.4279 112.897 19.4279C113.434 19.4279 113.883 19.5175 114.331 19.7865C114.779 20.0555 115.138 20.4141 115.317 20.8624C115.497 21.221 115.586 21.5796 115.586 22.0279V29.5588H114.062V22.8348C114.062 22.0279 113.972 21.4899 113.703 21.221C113.434 20.952 113.076 20.7727 112.628 20.7727C112.269 20.7727 111.731 20.952 111.193 21.221C110.655 21.4899 110.207 21.8486 109.848 22.2072V29.5588H108.324V22.2072Z" fill="#464A4D"/>
<path d="M119.172 21.8486L118.366 20.7727C119.71 19.8761 121.055 19.4279 122.49 19.4279C123.924 19.4279 124.821 19.9658 125.269 20.952C125.448 21.3106 125.448 21.8486 125.448 22.6555V23.1934L125.359 26.421C125.359 26.5106 125.359 26.6899 125.359 26.8693C125.359 27.4072 125.359 27.7658 125.448 28.0348C125.538 28.3934 125.807 28.6624 126.166 28.8417L125.359 29.9174C124.641 29.6485 124.193 29.2003 124.014 28.483C123.117 29.3795 122.131 29.8278 121.145 29.8278C120.159 29.8278 119.352 29.5588 118.724 29.021C118.186 28.5727 117.917 27.8555 117.917 26.9589C117.917 25.7934 118.366 24.9865 119.262 24.3589C120.159 23.7313 121.503 23.4624 123.117 23.4624C123.386 23.4624 123.566 23.4624 123.834 23.4624V22.7451C123.834 21.9382 123.745 21.4003 123.476 21.221C123.117 20.8624 122.759 20.683 122.131 20.683C121.593 20.683 120.966 20.8624 120.248 21.1313C119.979 21.3106 119.621 21.5796 119.172 21.8486ZM123.924 27.1382L124.014 24.5382C123.566 24.5382 123.297 24.5382 123.207 24.5382C121.772 24.5382 120.876 24.8072 120.338 25.3451C119.979 25.7037 119.8 26.2417 119.8 26.9589C119.8 28.1244 120.338 28.752 121.503 28.752C122.579 28.6624 123.386 28.1244 123.924 27.1382Z" fill="#464A4D"/>
<path d="M130.559 19.6965H133.069L132.621 20.9517H130.559V27.3172C130.559 27.8551 130.648 28.2137 130.828 28.4827C131.007 28.662 131.366 28.8413 131.814 28.8413C132.172 28.8413 132.531 28.7517 132.8 28.662L132.979 29.6483C132.441 29.9172 131.903 30.0069 131.276 30.0069C129.752 30.0069 129.034 29.2897 129.034 27.7655V20.9517H127.69V19.6965H128.945V19.5172C128.945 19.3379 129.034 18.6206 129.124 17.4551V17.1861L130.738 16.8275C130.559 17.9034 130.559 18.8896 130.559 19.6965Z" fill="#464A4D"/>
<path d="M134.683 24.6279C134.683 23.0141 135.041 21.7589 135.848 20.8624C136.566 19.9658 137.641 19.4279 138.897 19.4279C140.331 19.4279 141.497 19.9658 142.303 21.1313C142.931 22.0279 143.2 23.283 143.2 24.8072C143.2 26.6003 142.662 28.0348 141.676 28.9313C140.959 29.5588 140.062 29.9174 138.986 29.9174C137.641 29.9174 136.655 29.4692 135.848 28.483C135.131 27.5865 134.683 26.2417 134.683 24.6279ZM141.048 22.0279C140.6 21.221 139.972 20.7727 138.986 20.7727C138 20.7727 137.372 21.1313 136.924 21.8486C136.566 22.3865 136.476 23.283 136.476 24.4486C136.476 25.9727 136.655 27.0486 137.103 27.6761C137.552 28.3037 138.179 28.6624 139.076 28.6624C140.152 28.6624 140.869 28.1244 141.228 27.1382C141.407 26.6003 141.497 25.883 141.497 24.9865C141.497 23.6417 141.317 22.6555 141.048 22.0279Z" fill="#464A4D"/>
<path d="M146.159 22.0279C146.159 21.1313 146.069 20.4141 145.8 19.8761L147.324 19.4279C147.593 19.9658 147.683 20.4141 147.683 20.952V21.1313C148.49 20.0555 149.386 19.5175 150.462 19.5175C150.641 19.5175 150.821 19.5175 151 19.6072L150.372 21.3106C150.193 21.221 150.014 21.221 149.924 21.221C149.566 21.221 149.117 21.3106 148.759 21.5796C148.4 21.8486 148.041 22.1175 147.862 22.4761C147.772 22.7451 147.683 23.1037 147.683 23.552V29.7381H146.159V22.0279Z" fill="#464A4D"/>
</g>
</svg>
