<svg width="172" height="48" viewBox="0 0 172 48" fill="none" xmlns="http://www.w3.org/2000/svg">
<g opacity="0.6">
<path d="M49.0566 8H49.9284C52.9549 8.0658 55.9321 9.28299 58.0705 11.4378C57.2809 12.2437 56.475 13.0168 55.7019 13.8228C54.5012 12.7372 53.0537 11.8983 51.4746 11.6022C49.1389 11.1088 46.6223 11.5529 44.6649 12.8852C42.5266 14.2833 41.0791 16.652 40.7666 19.185C40.4211 21.6852 41.1284 24.317 42.7568 26.2579C44.3195 28.1495 46.7045 29.3338 49.1718 29.416C51.4746 29.5477 53.8761 28.8403 55.5539 27.2284C56.8697 26.0934 57.4784 24.3663 57.6757 22.6886C54.9453 22.6886 52.2148 22.705 49.4843 22.6886V19.3002H60.9819C61.574 22.9353 60.7187 27.031 57.9554 29.6299C56.1131 31.4721 53.5636 32.5578 50.9647 32.7716C48.4481 33.0183 45.8492 32.5413 43.6122 31.3241C40.931 29.8931 38.7927 27.4751 37.74 24.6296C36.7531 22.0142 36.7367 19.0535 37.6578 16.4217C38.4967 14.0202 40.1086 11.8983 42.1811 10.4179C44.1714 8.95401 46.5894 8.14804 49.0566 8Z" fill="#464A4D"/>
<path d="M115.016 8.85534H118.536V32.3439C117.368 32.3439 116.183 32.3604 115.016 32.3275C115.032 24.5144 115.016 16.6848 115.016 8.85534Z" fill="#464A4D"/>
<path d="M68.8115 16.9974C70.9827 16.5861 73.3349 17.0467 75.1278 18.3462C76.7562 19.4976 77.8911 21.307 78.2366 23.2808C78.6807 25.5671 78.1214 28.0673 76.641 29.8766C75.0455 31.8998 72.4302 32.9855 69.8807 32.8209C67.5449 32.6893 65.2751 31.5215 63.8934 29.6134C62.3308 27.5081 61.9525 24.6131 62.8077 22.1458C63.6631 19.4976 66.0811 17.4744 68.8115 16.9974ZM69.305 20.1226C68.4167 20.3529 67.5943 20.8628 67.0022 21.5865C65.4067 23.4946 65.5054 26.6034 67.2653 28.3798C68.2687 29.3996 69.782 29.8766 71.1801 29.597C72.4795 29.3667 73.6144 28.4949 74.2395 27.3435C75.3251 25.3861 75.0126 22.6886 73.3513 21.1589C72.2822 20.172 70.7195 19.7607 69.305 20.1226Z" fill="#464A4D"/>
<path d="M86.247 16.9974C88.7307 16.5204 91.4448 17.2112 93.3034 18.9548C96.33 21.6688 96.659 26.7514 94.0765 29.8766C92.5139 31.8505 89.9808 32.936 87.4806 32.8209C85.0956 32.7552 82.7435 31.5708 81.3289 29.6134C79.7334 27.4586 79.388 24.4979 80.2927 21.9813C81.1973 19.4153 83.5659 17.4579 86.247 16.9974ZM86.7405 20.1226C85.8522 20.3529 85.0298 20.8628 84.4377 21.5701C82.8586 23.4452 82.9244 26.5047 84.6186 28.2976C85.6219 29.3667 87.1846 29.8931 88.632 29.597C89.9151 29.3503 91.0665 28.4949 91.6915 27.3435C92.7607 25.3697 92.4482 22.6722 90.7704 21.1424C89.7012 20.1556 88.1386 19.7607 86.7405 20.1226Z" fill="#464A4D"/>
<path d="M101.035 17.9514C102.926 16.7671 105.443 16.4381 107.482 17.458C108.124 17.7376 108.65 18.2146 109.16 18.6916C109.177 18.2475 109.16 17.7869 109.177 17.3264C110.279 17.3428 111.381 17.3264 112.499 17.3428V31.8505C112.483 34.0382 111.924 36.3574 110.345 37.9529C108.617 39.7129 105.969 40.2557 103.584 39.8938C101.035 39.5156 98.8141 37.6568 97.8271 35.3047C98.8141 34.8277 99.8503 34.4493 100.87 34.0052C101.446 35.354 102.614 36.5054 104.078 36.7686C105.542 37.0318 107.236 36.6699 108.19 35.4527C109.21 34.2026 109.21 32.4919 109.16 30.9623C108.404 31.7024 107.532 32.3604 106.479 32.6071C104.193 33.2486 101.676 32.4591 99.9161 30.9129C98.1397 29.3667 97.087 26.9817 97.1856 24.6131C97.235 21.932 98.7483 19.3496 101.035 17.9514ZM104.439 20.0569C103.436 20.2213 102.499 20.7806 101.857 21.5537C100.311 23.3959 100.311 26.3402 101.874 28.1495C102.762 29.2187 104.193 29.8109 105.574 29.6628C106.874 29.5312 108.075 28.7088 108.716 27.5738C109.802 25.6494 109.621 23.0341 108.157 21.3563C107.252 20.32 105.805 19.8101 104.439 20.0569Z" fill="#464A4D"/>
<path d="M122.763 18.7903C124.737 16.9481 127.78 16.323 130.313 17.2935C132.714 18.1981 134.244 20.4845 135.017 22.8366C131.448 24.317 127.895 25.781 124.326 27.2613C124.819 28.1989 125.576 29.0542 126.595 29.3996C128.027 29.9096 129.737 29.7286 130.938 28.7746C131.415 28.4127 131.794 27.9357 132.156 27.4751C133.06 28.0838 133.964 28.6759 134.869 29.2845C133.586 31.209 131.432 32.5578 129.112 32.7716C126.546 33.0841 123.816 32.0972 122.154 30.0904C119.424 26.9324 119.687 21.6359 122.763 18.7903ZM124.523 21.8333C123.964 22.6392 123.734 23.6262 123.75 24.5966C126.135 23.6098 128.52 22.6228 130.905 21.6194C130.51 20.6983 129.556 20.139 128.586 19.991C127.023 19.7114 125.395 20.5503 124.523 21.8333Z" fill="#464A4D"/>
</g>
</svg>
