<svg width="172" height="48" viewBox="0 0 172 48" fill="none" xmlns="http://www.w3.org/2000/svg">
<g opacity="0.6">
<path d="M144.281 36.771C144.354 36.7717 144.427 36.7572 144.495 36.7285C144.563 36.6999 144.624 36.6576 144.675 36.6043C144.726 36.551 144.766 36.4877 144.791 36.4186C144.816 36.3492 144.827 36.2756 144.823 36.202C144.823 35.7986 144.58 35.6058 144.08 35.6058H143.273V37.7182H143.577V36.7975H143.95L143.958 36.8087L144.537 37.7182H144.862L144.239 36.7767L144.281 36.771ZM143.93 36.5593H143.578V35.8452H144.024C144.254 35.8452 144.517 35.8828 144.517 36.1845C144.517 36.5317 144.251 36.5593 143.928 36.5593" fill="#464A4D"/>
<path d="M26.0342 13.6718H30.5144V29.9913H38.8087V34.126H26.0342V13.6718Z" fill="#464A4D"/>
<path d="M40.7894 20.2575H45.0935V34.1182H40.7894V20.2575ZM42.9415 13.3665C43.4353 13.3666 43.9179 13.5131 44.3285 13.7876C44.739 14.0619 45.059 14.4519 45.2479 14.9082C45.4368 15.3644 45.4862 15.8664 45.3898 16.3507C45.2934 16.835 45.0556 17.2799 44.7064 17.629C44.3572 17.9781 43.9123 18.2159 43.428 18.3122C42.9436 18.4085 42.4416 18.359 41.9854 18.17C41.5292 17.981 41.1393 17.661 40.865 17.2504C40.5906 16.8398 40.4442 16.3571 40.4442 15.8633C40.4442 15.5354 40.5088 15.2107 40.6343 14.9078C40.7598 14.6048 40.9438 14.3295 41.1757 14.0977C41.4076 13.8658 41.6829 13.6819 41.9858 13.5565C42.2888 13.431 42.6135 13.3665 42.9415 13.3665Z" fill="#464A4D"/>
<path d="M63.0977 13.6687H67.4018V25.8926L72.2797 20.2511H77.5567L71.9077 26.6682L77.4379 34.1241H72.0284L67.4592 27.2726H67.4027V34.1231H63.0987L63.0977 13.6687Z" fill="#464A4D"/>
<path d="M47.48 20.259H51.6133V22.1532H51.6719C52.0848 21.4459 52.6819 20.864 53.3997 20.4697C54.1176 20.0753 54.929 19.8833 55.7474 19.9142C60.1119 19.9142 60.9153 22.7858 60.9153 26.5164V34.1176H56.6112V27.3786C56.6112 25.7699 56.5817 23.7022 54.3696 23.7022C52.1323 23.7022 51.7872 25.4539 51.7872 27.2615V34.1158H47.4831L47.48 20.259Z" fill="#464A4D"/>
<path d="M86.6208 25.5756C86.6291 25.2264 86.5662 24.8792 86.4363 24.555C86.3065 24.2308 86.1121 23.9363 85.865 23.6894C85.618 23.4425 85.3233 23.2483 84.9991 23.1186C84.6747 22.9889 84.3275 22.9264 83.9783 22.9349C83.2262 22.8881 82.486 23.1387 81.917 23.6327C81.3481 24.1267 80.996 24.8245 80.9368 25.5756H86.6208ZM90.2667 31.7178C89.5514 32.5851 88.6522 33.2825 87.6342 33.7595C86.6163 34.2364 85.505 34.4811 84.3808 34.4756C80.0769 34.4756 76.6309 31.6027 76.6309 27.1538C76.6309 22.7049 80.0765 19.8333 84.3808 19.8333C88.4039 19.8333 90.9267 22.7027 90.9267 27.1538V28.5033H80.9368C81.0611 29.2686 81.4579 29.9632 82.054 30.459C82.65 30.9549 83.4054 31.2187 84.1805 31.2018C84.7931 31.198 85.3951 31.0412 85.9315 30.7452C86.468 30.4495 86.922 30.024 87.2521 29.508L90.2667 31.7178Z" fill="#464A4D"/>
<path d="M99.8978 23.608C97.746 23.608 96.4547 25.0449 96.4547 27.1387C96.4547 29.2324 97.7454 30.6706 99.8978 30.6706C102.05 30.6706 103.344 29.236 103.344 27.1387C103.344 25.0413 102.053 23.608 99.8978 23.608ZM107.307 34.1158H103.344V32.2776H103.285C102.788 32.9461 102.144 33.491 101.401 33.8695C100.659 34.248 99.8397 34.4502 99.0066 34.4601C94.8711 34.4601 92.1471 31.4754 92.1471 27.2548C92.1471 23.3785 94.5576 19.8191 98.5207 19.8191C100.302 19.8191 101.966 20.3064 102.942 21.6573H102.998V13.6674H107.306L107.307 34.1158Z" fill="#464A4D"/>
<path d="M136.363 34.1239H132.059V27.3836C132.059 25.7763 132.03 23.7072 129.82 23.7072C127.579 23.7072 127.236 25.4584 127.236 27.2665V34.1233H122.932V20.2626H127.064V22.1568H127.121C127.535 21.4498 128.132 20.8682 128.85 20.4739C129.568 20.0796 130.38 19.8874 131.198 19.9178C135.56 19.9178 136.365 22.7872 136.365 26.5201L136.363 34.1239ZM118.075 18.3679C117.581 18.368 117.098 18.2216 116.688 17.9472C116.277 17.6729 115.957 17.2828 115.767 16.8265C115.578 16.3701 115.529 15.8679 115.625 15.3834C115.721 14.8989 115.959 14.4538 116.308 14.1044C116.658 13.7551 117.103 13.5171 117.587 13.4206C118.072 13.3241 118.574 13.3735 119.03 13.5625C119.487 13.7515 119.877 14.0715 120.151 14.4822C120.426 14.8929 120.572 15.3758 120.573 15.8698C120.573 16.1978 120.508 16.5226 120.383 16.8256C120.257 17.1287 120.073 17.4041 119.841 17.6361C119.609 17.868 119.334 18.052 119.031 18.1776C118.728 18.3032 118.403 18.3679 118.075 18.3679ZM120.227 34.1239H115.919V20.2626H120.227V34.1239ZM138.509 9.37561H113.756C113.194 9.36927 112.653 9.58623 112.251 9.97883C111.849 10.3714 111.619 10.9075 111.612 11.4693V36.3248C111.619 36.8868 111.849 37.4233 112.25 37.8163C112.652 38.2094 113.194 38.4266 113.756 38.4207H138.509C139.072 38.4279 139.615 38.2111 140.018 37.8181C140.422 37.4249 140.653 36.888 140.661 36.3248V11.4675C140.653 10.9046 140.422 10.3679 140.018 9.97532C139.615 9.58273 139.072 9.36639 138.509 9.37381" fill="#464A4D"/>
<path d="M143.966 34.6649C143.443 34.6698 142.942 34.8822 142.575 35.255C142.207 35.628 142.002 36.1314 142.005 36.6551C142.007 37.1788 142.217 37.6802 142.588 38.0496C142.959 38.4189 143.462 38.6264 143.985 38.6264C144.509 38.6264 145.012 38.4189 145.383 38.0496C145.754 37.6802 145.964 37.1788 145.966 36.6551C145.969 36.1314 145.764 35.628 145.396 35.255C145.028 34.8822 144.528 34.6698 144.005 34.6649H143.966ZM143.966 38.3996C143.623 38.4053 143.285 38.3089 142.997 38.123C142.708 37.9369 142.481 37.6694 142.344 37.3542C142.207 37.0391 142.167 36.6905 142.229 36.3525C142.29 36.0144 142.45 35.7022 142.689 35.4553C142.928 35.2084 143.235 35.038 143.57 34.9654C143.906 34.8927 144.256 34.9212 144.575 35.0473C144.895 35.1736 145.17 35.3917 145.365 35.674C145.561 35.9565 145.668 36.2904 145.674 36.634C145.674 36.6439 145.674 36.6533 145.674 36.6631C145.684 37.1138 145.514 37.5496 145.202 37.8751C144.891 38.2005 144.462 38.3888 144.012 38.3986H143.967" fill="#464A4D"/>
</g>
</svg>
