<svg width="172" height="48" viewBox="0 0 172 48" fill="none" xmlns="http://www.w3.org/2000/svg">
<g opacity="0.6">
<path d="M146 22.78V20.6697H143.38V17.3888L140.83 18.1691L140.781 18.1839V20.6698H136.896V19.2849C136.896 18.6401 137.04 18.1466 137.324 17.8175C137.607 17.4924 138.01 17.3271 138.525 17.3271C138.895 17.3271 139.278 17.4142 139.664 17.5861L139.761 17.6293V15.4068L139.715 15.3901C139.355 15.2608 138.866 15.1957 138.26 15.1957C137.495 15.1957 136.801 15.362 136.195 15.6917C135.589 16.0218 135.112 16.4931 134.778 17.0923C134.445 17.6909 134.276 18.3821 134.276 19.1471V20.6697H132.452V22.78H134.276V31.6707H136.896V22.78H140.781V28.4299C140.781 30.7568 141.879 31.9359 144.043 31.9359C144.399 31.9359 144.773 31.8943 145.156 31.8127C145.545 31.7288 145.81 31.6452 145.966 31.5558L146 31.5353V29.4055L145.894 29.4759C145.752 29.5706 145.575 29.6481 145.367 29.7056C145.159 29.7643 144.984 29.7936 144.85 29.7936C144.342 29.7936 143.967 29.657 143.735 29.3873C143.499 29.1152 143.38 28.6394 143.38 27.9738V22.78H146ZM126.602 29.794C125.651 29.794 124.901 29.4787 124.373 28.8577C123.841 28.2335 123.572 27.3436 123.572 26.2129C123.572 25.0464 123.841 24.1334 124.373 23.4982C124.902 22.8672 125.644 22.5469 126.58 22.5469C127.489 22.5469 128.212 22.8528 128.73 23.4566C129.25 24.0634 129.514 24.9691 129.514 26.1492C129.514 27.3438 129.266 28.2615 128.776 28.8753C128.29 29.4845 127.558 29.794 126.602 29.794ZM126.718 20.4046C124.904 20.4046 123.463 20.9362 122.436 21.9845C121.409 23.033 120.889 24.4839 120.889 26.2973C120.889 28.0198 121.397 29.4052 122.399 30.4146C123.401 31.4242 124.765 31.9357 126.453 31.9357C128.211 31.9357 129.623 31.3967 130.65 30.3339C131.677 29.2722 132.197 27.835 132.197 26.0639C132.197 24.3145 131.709 22.9188 130.746 21.9161C129.782 20.9131 128.427 20.4046 126.718 20.4046ZM116.665 20.4046C115.431 20.4046 114.41 20.7203 113.631 21.3426C112.846 21.9686 112.448 22.7897 112.448 23.7832C112.448 24.2997 112.534 24.7584 112.703 25.1475C112.873 25.5379 113.136 25.8816 113.486 26.1701C113.833 26.4563 114.369 26.756 115.078 27.0609C115.675 27.3064 116.12 27.5141 116.403 27.6778C116.679 27.8382 116.875 27.9995 116.986 28.1565C117.093 28.3102 117.148 28.5206 117.148 28.7801C117.148 29.5192 116.594 29.8788 115.455 29.8788C115.033 29.8788 114.551 29.7906 114.023 29.6167C113.499 29.4455 113.005 29.1947 112.557 28.8731L112.448 28.7951V31.3172L112.488 31.3358C112.859 31.5069 113.326 31.6512 113.877 31.7647C114.426 31.8784 114.926 31.9362 115.36 31.9362C116.699 31.9362 117.777 31.619 118.564 30.993C119.356 30.3627 119.757 29.5222 119.757 28.4943C119.757 27.7528 119.541 27.1169 119.115 26.604C118.692 26.0954 117.958 25.6284 116.935 25.2156C116.119 24.8882 115.597 24.6165 115.381 24.4079C115.173 24.2063 115.068 23.9214 115.068 23.5605C115.068 23.2405 115.198 22.9842 115.465 22.7767C115.735 22.5681 116.11 22.462 116.58 22.462C117.017 22.462 117.463 22.5309 117.907 22.666C118.351 22.8012 118.741 22.9821 119.066 23.2035L119.173 23.2766V20.8842L119.132 20.8665C118.832 20.7378 118.436 20.6276 117.955 20.5382C117.477 20.4494 117.043 20.4046 116.665 20.4046ZM105.619 29.794C104.668 29.794 103.918 29.4787 103.39 28.8577C102.859 28.2335 102.59 27.3438 102.59 26.2129C102.59 25.0464 102.859 24.1334 103.391 23.4982C103.919 22.8672 104.661 22.5469 105.598 22.5469C106.506 22.5469 107.229 22.8528 107.747 23.4566C108.268 24.0634 108.532 24.9691 108.532 26.1492C108.532 27.3438 108.283 28.2615 107.793 28.8753C107.307 29.4845 106.576 29.794 105.619 29.794ZM105.736 20.4046C103.921 20.4046 102.48 20.9362 101.453 21.9845C100.427 23.033 99.906 24.4839 99.906 26.2973C99.906 28.0205 100.415 29.4052 101.417 30.4146C102.419 31.4242 103.783 31.9357 105.47 31.9357C107.229 31.9357 108.641 31.3967 109.668 30.3339C110.694 29.2722 111.215 27.835 111.215 26.0639C111.215 24.3145 110.727 22.9188 109.763 21.9161C108.799 20.9131 107.444 20.4046 105.736 20.4046ZM95.9295 22.5748V20.6697H93.3418V31.6705H95.9295V26.0431C95.9295 25.0862 96.1465 24.3001 96.5746 23.7064C96.9972 23.1197 97.5605 22.8224 98.2482 22.8224C98.4812 22.8224 98.7429 22.8608 99.0263 22.9369C99.3067 23.0124 99.5099 23.0945 99.6297 23.1809L99.7384 23.2597V20.6508L99.6965 20.6329C99.4555 20.5305 99.1146 20.4788 98.6832 20.4788C98.0329 20.4788 97.451 20.6878 96.9526 21.0992C96.515 21.4608 96.1988 21.9565 95.957 22.5748H95.9295ZM88.7077 20.4046C87.5205 20.4046 86.4616 20.6592 85.5609 21.161C84.6584 21.664 83.9604 22.3821 83.4855 23.2952C83.0127 24.2061 82.7726 25.2701 82.7726 26.4567C82.7726 27.4961 83.0053 28.45 83.4654 29.2906C83.9256 30.1327 84.5771 30.7915 85.4018 31.2484C86.2252 31.7047 87.177 31.9361 88.2308 31.9361C89.4606 31.9361 90.5105 31.6902 91.3524 31.2053L91.3864 31.1858V28.8151L91.2776 28.8945C90.8963 29.1722 90.4702 29.394 90.0116 29.5537C89.5543 29.7133 89.1373 29.794 88.7716 29.794C87.7563 29.794 86.9411 29.4763 86.3494 28.8499C85.7565 28.2227 85.4558 27.342 85.4558 26.2337C85.4558 25.1185 85.7694 24.2152 86.3873 23.5486C87.0033 22.884 87.82 22.5469 88.8143 22.5469C89.6649 22.5469 90.4937 22.8349 91.2779 23.4037L91.3864 23.4826V20.9846L91.3513 20.9648C91.0562 20.7997 90.6538 20.6633 90.1542 20.5598C89.6566 20.4566 89.17 20.4046 88.7077 20.4046ZM80.9904 20.6698H78.4027V31.6705H80.9904V20.6698ZM79.723 15.9834C79.2971 15.9834 78.9256 16.1284 78.6204 16.4157C78.314 16.7038 78.1585 17.0666 78.1585 17.4947C78.1585 17.9161 78.3121 18.2722 78.6157 18.5527C78.9173 18.8323 79.2899 18.974 79.7231 18.974C80.1562 18.974 80.5302 18.8323 80.8354 18.5531C81.1426 18.2722 81.2983 17.9162 81.2983 17.4947C81.2983 17.0815 81.1467 16.7225 80.8481 16.4273C80.5496 16.1327 80.1709 15.9834 79.723 15.9834ZM73.2665 19.8581V31.6705H75.9073V16.3202H72.2523L67.6064 27.7219L63.0979 16.3202H59.2939V31.6703H61.7757V19.857H61.8609L66.6218 31.6705H68.4947L73.1813 19.8581H73.2665Z" fill="#464A4D"/>
<path d="M38.1734 23.3639H26V11.1906H38.1734V23.3639Z" fill="#464A4D"/>
<path d="M51.6145 23.3639H39.4414V11.1906H51.6145V23.3639Z" fill="#464A4D"/>
<path d="M38.173 36.8094H26V24.6362H38.173V36.8094Z" fill="#464A4D"/>
<path d="M51.6145 36.8094H39.4414V24.6362H51.6145V36.8094Z" fill="#464A4D"/>
</g>
</svg>
