<svg width="172" height="48" viewBox="0 0 172 48" fill="none" xmlns="http://www.w3.org/2000/svg">
<g opacity="0.6">
<path fill-rule="evenodd" clip-rule="evenodd" d="M98.8767 33.0249C92.7058 37.5733 83.7618 40 76.0611 40C65.2633 40 55.5427 36.0064 48.1887 29.3641C47.611 28.8418 48.1287 28.13 48.822 28.5367C56.7585 33.1544 66.5716 35.9324 76.7082 35.9324C83.5444 35.9324 91.0649 34.518 97.9798 31.5829C99.0244 31.1391 99.898 32.2669 98.8767 33.0249Z" fill="#464A4D"/>
<path fill-rule="evenodd" clip-rule="evenodd" d="M101.442 30.0898C100.656 29.0822 96.228 29.6137 94.2405 29.8495C93.6349 29.9234 93.5425 29.3965 94.088 29.0175C97.6147 26.5353 103.402 27.2518 104.077 28.0838C104.752 28.9204 103.901 34.7213 100.587 37.49C100.078 37.9153 99.5931 37.6889 99.8196 37.1249C100.564 35.2669 102.232 31.1022 101.442 30.0898Z" fill="#464A4D"/>
<path fill-rule="evenodd" clip-rule="evenodd" d="M94.3791 11.4944V9.0816C94.3791 8.71644 94.6565 8.47146 94.9893 8.47146H105.792C106.138 8.47146 106.416 8.72107 106.416 9.0816V11.1478C106.411 11.4944 106.12 11.9474 105.602 12.6639L100.004 20.6558C102.084 20.6049 104.28 20.9146 106.166 21.9777C106.591 22.2181 106.707 22.5694 106.739 22.9161V25.4907C106.739 25.842 106.351 26.2533 105.944 26.0407C102.621 24.2981 98.2062 24.1086 94.5316 26.0592C94.1571 26.2626 93.7642 25.8558 93.7642 25.5045V23.0594C93.7642 22.6665 93.7689 21.9962 94.1618 21.4L100.647 12.1H95.0031C94.6565 12.1 94.3791 11.855 94.3791 11.4944Z" fill="#464A4D"/>
<path fill-rule="evenodd" clip-rule="evenodd" d="M54.9742 26.5491H51.6878C51.3735 26.5261 51.1239 26.2903 51.1008 25.9899V9.1232C51.1008 8.78578 51.3827 8.51768 51.734 8.51768H54.7986C55.1175 8.53154 55.3717 8.77653 55.3948 9.0816V11.2864H55.4548C56.2546 9.15556 57.7568 8.16177 59.7813 8.16177C61.8384 8.16177 63.1233 9.15556 64.0477 11.2864C64.8428 9.15556 66.6502 8.16177 68.5868 8.16177C69.9642 8.16177 71.4711 8.7303 72.3908 10.0061C73.4308 11.4251 73.2184 13.4866 73.2184 15.2939L73.2137 25.939C73.2137 26.2764 72.9317 26.5491 72.5804 26.5491H69.2986C68.9704 26.5261 68.7071 26.2626 68.7071 25.939V16.9995C68.7071 16.2877 68.7717 14.5128 68.6146 13.8379C68.3695 12.7055 67.6346 12.3865 66.6824 12.3865C65.8875 12.3865 65.0553 12.9181 64.718 13.7686C64.3806 14.6191 64.4128 16.0427 64.4128 16.9995V25.939C64.4128 26.2764 64.1308 26.5491 63.7797 26.5491H60.4977C60.1651 26.5261 59.9062 26.2626 59.9062 25.939L59.9015 16.9995C59.9015 15.1183 60.2113 12.3495 57.8771 12.3495C55.5151 12.3495 55.6075 15.0489 55.6075 16.9995V25.939C55.6075 26.2764 55.3255 26.5491 54.9742 26.5491Z" fill="#464A4D"/>
<path fill-rule="evenodd" clip-rule="evenodd" d="M115.715 8.16177C120.592 8.16177 123.231 12.3495 123.231 17.6744C123.231 22.819 120.315 26.9005 115.715 26.9005C110.927 26.9005 108.32 22.7127 108.32 17.4941C108.32 12.2432 110.959 8.16177 115.715 8.16177ZM115.743 11.6054C113.321 11.6054 113.169 14.9057 113.169 16.9626C113.169 19.0241 113.136 23.4245 115.715 23.4245C118.262 23.4245 118.383 19.8746 118.383 17.7114C118.383 16.2877 118.322 14.5867 117.893 13.237C117.523 12.063 116.788 11.6054 115.743 11.6054Z" fill="#464A4D"/>
<path fill-rule="evenodd" clip-rule="evenodd" d="M129.555 26.5491H126.282C125.954 26.5261 125.69 26.2626 125.69 25.939L125.686 9.06773C125.713 8.75804 125.986 8.51768 126.319 8.51768H129.365C129.652 8.53154 129.887 8.72568 129.952 8.98915V11.5684H130.012C130.932 9.26187 132.221 8.16177 134.491 8.16177C135.966 8.16177 137.403 8.69333 138.328 10.1493C139.187 11.499 139.187 13.7686 139.187 15.4002V26.0176C139.15 26.3134 138.878 26.5491 138.554 26.5491H135.258C134.958 26.5261 134.708 26.3042 134.676 26.0176V16.8563C134.676 15.012 134.889 12.3126 132.619 12.3126C131.819 12.3126 131.085 12.8487 130.719 13.6623C130.257 14.693 130.197 15.7192 130.197 16.8563V25.939C130.192 26.2764 129.906 26.5491 129.555 26.5491Z" fill="#464A4D"/>
<path fill-rule="evenodd" clip-rule="evenodd" d="M85.7678 18.4925C85.7678 19.7729 85.8002 20.8407 85.1531 21.9777C84.6309 22.9022 83.7986 23.4707 82.8789 23.4707C81.6171 23.4707 80.8775 22.5093 80.8775 21.0903C80.8775 18.2892 83.3873 17.7807 85.7678 17.7807V18.4925ZM89.082 26.5029C88.8649 26.6971 88.5504 26.7109 88.3055 26.5815C87.2146 25.6756 87.0158 25.2549 86.4195 24.3906C84.6169 26.2302 83.3364 26.7803 81.0022 26.7803C78.2335 26.7803 76.0842 25.0747 76.0842 21.6588C76.0842 18.9918 77.5264 17.1752 79.5878 16.2877C81.372 15.5019 83.8635 15.3633 85.7678 15.146V14.7208C85.7678 13.9396 85.828 13.0152 85.3658 12.3403C84.9682 11.7348 84.2009 11.4852 83.5213 11.4852C82.2689 11.4852 81.1549 12.1277 80.8822 13.4589C80.8267 13.7547 80.6093 14.0459 80.3089 14.0598L77.1242 13.7178C76.8562 13.6577 76.5558 13.4404 76.6342 13.029C77.3647 9.16482 80.8591 8 83.9835 8C85.5829 8 87.6722 8.42525 88.9342 9.63628C90.5333 11.1293 90.3809 13.1215 90.3809 15.2893V20.4108C90.3809 21.95 91.0186 22.6249 91.6195 23.4569C91.8275 23.7527 91.8738 24.1086 91.6058 24.3305C90.9355 24.8898 89.7429 25.9298 89.0867 26.5122L89.082 26.5029Z" fill="#464A4D"/>
<path fill-rule="evenodd" clip-rule="evenodd" d="M42.6837 18.4928C42.6837 19.7731 42.716 20.8409 42.0689 21.978C41.5466 22.9024 40.7192 23.471 39.7947 23.471C38.5328 23.471 37.7979 22.5095 37.7979 21.0905C37.7979 18.2894 40.3078 17.7809 42.6837 17.7809V18.4928ZM45.9978 26.5032C45.7806 26.6973 45.4663 26.7112 45.2213 26.5817C44.1304 25.6758 43.9363 25.2552 43.3354 24.3908C41.5327 26.2305 40.257 26.7805 37.9181 26.7805C35.154 26.7805 33 25.0749 33 21.659C33 18.992 34.4468 17.1754 36.5037 16.2879C38.2879 15.5022 40.7793 15.3635 42.6837 15.1463V14.721C42.6837 13.9398 42.7438 13.0154 42.2861 12.3405C41.884 11.735 41.1167 11.4854 40.4418 11.4854C39.1892 11.4854 38.0706 12.1279 37.7979 13.4591C37.7424 13.7549 37.5252 14.0461 37.2294 14.06L34.04 13.718C33.7719 13.6579 33.4761 13.4406 33.55 13.0293C34.285 9.16504 37.7748 8.00022 40.8995 8.00022C42.4988 8.00022 44.588 8.42547 45.8499 9.63651C47.4492 11.1295 47.2967 13.1217 47.2967 15.2895V20.411C47.2967 21.9502 47.9346 22.6251 48.5354 23.4571C48.7481 23.7529 48.7943 24.1088 48.5262 24.3307C47.856 24.89 46.6634 25.93 46.0071 26.5124L45.9978 26.5032Z" fill="#464A4D"/>
</g>
</svg>
