<svg width="172" height="48" viewBox="0 0 172 48" fill="none" xmlns="http://www.w3.org/2000/svg">
<g opacity="0.6">
<path d="M48.924 11.0013H41.3351C40.8157 11.0013 40.3741 11.3787 40.2931 11.8915L37.2238 31.3515C37.1627 31.7353 37.4602 32.0816 37.8496 32.0816H41.4727C41.992 32.0816 42.4336 31.7044 42.5146 31.1906L43.3424 25.942C43.4224 25.4281 43.8651 25.0508 44.3833 25.0508H46.7857C51.7847 25.0508 54.6698 22.6317 55.4234 17.838C55.7628 15.7407 55.4377 14.0929 54.4556 12.9389C53.3771 11.6715 51.464 11.0013 48.924 11.0013ZM49.7996 18.1088C49.3846 20.8319 47.3039 20.8319 45.2921 20.8319H44.147L44.9503 15.7464C44.9981 15.4389 45.2644 15.2126 45.5751 15.2126H46.0999C47.4703 15.2126 48.7632 15.2126 49.4311 15.9937C49.8295 16.4598 49.9516 17.1522 49.7996 18.1088Z" fill="#464A4D"/>
<path d="M71.6085 18.0212H67.9747C67.665 18.0212 67.3976 18.2476 67.3498 18.555L67.1891 19.5714L66.9349 19.203C66.1482 18.0611 64.3937 17.6794 62.6427 17.6794C58.6268 17.6794 55.1968 20.721 54.5289 24.9876C54.1816 27.1159 54.6754 29.151 55.8827 30.5702C56.99 31.8752 58.5746 32.4189 60.4601 32.4189C63.6959 32.4189 65.49 30.3384 65.49 30.3384L65.3281 31.3482C65.2669 31.7344 65.5644 32.0805 65.9517 32.0805H69.225C69.7456 32.0805 70.185 31.7032 70.2672 31.1895L72.2311 18.7513C72.2934 18.3685 71.9971 18.0212 71.6085 18.0212ZM66.543 25.0942C66.1926 27.1703 64.5447 28.5641 62.443 28.5641C61.3878 28.5641 60.5443 28.2256 60.0028 27.5842C59.4658 26.9473 59.2616 26.0407 59.4324 25.0308C59.7598 22.9725 61.4355 21.5333 63.5048 21.5333C64.5369 21.5333 65.3758 21.8762 65.9284 22.523C66.4822 23.1766 66.7018 24.0887 66.543 25.0942Z" fill="#464A4D"/>
<path d="M90.9632 18.0212H87.3115C86.963 18.0212 86.6357 18.1943 86.4382 18.484L81.4014 25.9031L79.2665 18.7736C79.1322 18.3274 78.7207 18.0212 78.2545 18.0212H74.6659C74.2297 18.0212 73.9269 18.4473 74.0656 18.8578L78.088 30.6624L74.3064 36.0009C74.0089 36.4214 74.3084 36.9998 74.8225 36.9998H78.4699C78.816 36.9998 79.1401 36.8309 79.3364 36.5469L91.4827 19.0144C91.7734 18.5948 91.4749 18.0212 90.9632 18.0212Z" fill="#464A4D"/>
<path d="M103.054 11.0013H95.4641C94.9459 11.0013 94.5042 11.3787 94.4232 11.8915L91.3539 31.3515C91.2929 31.7353 91.5903 32.0816 91.9776 32.0816H95.8725C96.2341 32.0816 96.544 31.8176 96.6003 31.458L97.4713 25.942C97.5513 25.4281 97.9942 25.0508 98.5122 25.0508H100.914C105.914 25.0508 108.798 22.6317 109.552 17.838C109.893 15.7407 109.566 14.0929 108.584 12.9389C107.506 11.6715 105.594 11.0013 103.054 11.0013ZM103.93 18.1088C103.516 20.8319 101.435 20.8319 99.4222 20.8319H98.2782L99.0828 15.7464C99.1304 15.4389 99.3944 15.2126 99.7062 15.2126H100.231C101.601 15.2126 102.894 15.2126 103.562 15.9937C103.961 16.4598 104.082 17.1522 103.93 18.1088Z" fill="#464A4D"/>
<path d="M125.738 18.0212H122.106C121.794 18.0212 121.529 18.2476 121.482 18.555L121.321 19.5714L121.066 19.203C120.279 18.0611 118.526 17.6794 116.775 17.6794C112.759 17.6794 109.33 20.721 108.662 24.9876C108.316 27.1159 108.808 29.151 110.015 30.5702C111.125 31.8752 112.707 32.4189 114.592 32.4189C117.828 32.4189 119.622 30.3384 119.622 30.3384L119.46 31.3482C119.399 31.7344 119.697 32.0805 120.086 32.0805H123.359C123.877 32.0805 124.319 31.7032 124.4 31.1895L126.365 18.7513C126.424 18.3685 126.127 18.0212 125.738 18.0212ZM120.672 25.0942C120.324 27.1703 118.674 28.5641 116.572 28.5641C115.519 28.5641 114.673 28.2256 114.132 27.5842C113.595 26.9473 113.393 26.0407 113.562 25.0308C113.891 22.9725 115.564 21.5333 117.634 21.5333C118.666 21.5333 119.505 21.8762 120.057 22.523C120.613 23.1766 120.833 24.0887 120.672 25.0942Z" fill="#464A4D"/>
<path d="M130.022 11.5352L126.907 31.3515C126.846 31.7353 127.144 32.0816 127.531 32.0816H130.662C131.183 32.0816 131.625 31.7044 131.705 31.1906L134.776 11.7317C134.837 11.3477 134.54 11.0004 134.152 11.0004H130.646C130.336 11.0013 130.07 11.228 130.022 11.5352Z" fill="#464A4D"/>
</g>
</svg>
