<svg width="172" height="48" viewBox="0 0 172 48" fill="none" xmlns="http://www.w3.org/2000/svg">
<g opacity="0.6">
<path d="M70.7198 12.899H75.2299L82.8989 26.7714L90.5677 12.899H94.9802V35.694H91.3005V18.2233L84.5759 30.321H81.1241L74.3995 18.2233V35.694H70.7198V12.899Z" fill="#464A4D"/>
<path d="M106.85 36.1012C105.145 36.1012 103.647 35.7238 102.356 34.9696C101.064 34.2152 100.057 33.1703 99.3354 31.8353C98.6134 30.5001 98.2526 28.9696 98.2526 27.2437C98.2526 25.4961 98.6053 23.9493 99.3109 22.6032C100.016 21.2574 100.996 20.2044 102.25 19.4444C103.504 18.6848 104.945 18.3047 106.573 18.3047C108.19 18.3047 109.582 18.6873 110.749 19.4525C111.916 20.2179 112.814 21.2899 113.444 22.6684C114.073 24.047 114.388 25.6642 114.388 27.5205V28.5298H101.9C102.128 29.9195 102.69 31.0129 103.585 31.8107C104.481 32.6086 105.612 33.0074 106.98 33.0074C108.076 33.0074 109.021 32.8446 109.813 32.519C110.605 32.1934 111.349 31.6995 112.044 31.0374L113.998 33.4308C112.054 35.2112 109.672 36.1012 106.85 36.1012ZM109.536 22.5787C108.765 21.7918 107.756 21.3982 106.508 21.3982C105.292 21.3982 104.274 21.7999 103.455 22.6032C102.635 23.4065 102.117 24.4866 101.9 25.8434H110.855C110.746 24.4539 110.307 23.366 109.536 22.5787Z" fill="#464A4D"/>
<path d="M118.85 21.724H115.463V18.7118H118.85V13.7295H122.399V18.7118H127.545V21.724H122.399V29.3603C122.399 30.6302 122.616 31.5366 123.051 32.0794C123.485 32.6223 124.228 32.8935 125.281 32.8935C125.748 32.8935 126.144 32.8748 126.47 32.8365C126.796 32.7986 127.154 32.7469 127.545 32.6818V35.6614C127.143 35.7808 126.69 35.8785 126.185 35.9546C125.68 36.0303 125.151 36.0686 124.597 36.0686C120.766 36.0686 118.85 33.9737 118.85 29.7837V21.724Z" fill="#464A4D"/>
<path d="M146.042 35.694H142.557V33.3168C141.938 34.2071 141.151 34.8937 140.196 35.3765C139.241 35.8594 138.155 36.1012 136.94 36.1012C135.442 36.1012 134.115 35.7184 132.959 34.9531C131.803 34.1879 130.894 33.1351 130.232 31.7945C129.569 30.4539 129.238 28.9207 129.238 27.1948C129.238 25.4581 129.575 23.922 130.248 22.5868C130.921 21.2518 131.852 20.2044 133.04 19.4444C134.229 18.6847 135.594 18.3046 137.135 18.3046C138.297 18.3046 139.339 18.53 140.261 18.9805C141.184 19.4309 141.949 20.0688 142.557 20.8935V18.7118H146.041L146.042 35.694ZM142.492 24.6548C142.112 23.6887 141.512 22.9264 140.693 22.367C139.873 21.8081 138.926 21.5286 137.852 21.5286C136.332 21.5286 135.122 22.0389 134.221 23.059C133.32 24.0794 132.869 25.4581 132.869 27.1948C132.869 28.9426 133.303 30.3264 134.172 31.3468C135.04 32.3672 136.218 32.8773 137.705 32.8773C138.801 32.8773 139.778 32.5951 140.636 32.0305C141.493 31.4664 142.112 30.7063 142.492 29.751V24.6548Z" fill="#464A4D"/>
<path d="M52.9405 12.1285C49.9815 12.1285 47.6684 14.3572 45.5745 17.1883C42.6972 13.5246 40.2908 12.1285 37.411 12.1285C31.5399 12.1285 27.0415 19.7692 27.0415 27.8565C27.0415 32.9172 29.4898 36.1091 33.5907 36.1091C36.5422 36.1091 38.665 34.7176 42.4387 28.1211C42.4387 28.1211 44.0118 25.3432 45.0939 23.4296C45.4732 24.0418 45.8717 24.7006 46.2921 25.4088L48.0617 28.3857C51.5088 34.1542 53.4295 36.1091 56.9097 36.1091C60.9048 36.1091 63.1281 32.8736 63.1281 27.7076C63.1281 19.24 58.5283 12.1285 52.9405 12.1285ZM39.561 26.335C36.5014 31.1311 35.443 32.2061 33.7395 32.2061C31.9865 32.2061 30.9445 30.667 30.9445 27.9226C30.9445 22.0515 33.8718 16.0481 37.3614 16.0481C39.2511 16.0481 40.8303 17.1395 43.2491 20.6024C40.9523 24.1253 39.561 26.335 39.561 26.335ZM51.1083 25.7312L48.9925 22.2025C48.4199 21.2713 47.8713 20.4156 47.3417 19.631C49.2487 16.6878 50.8216 15.2212 52.6924 15.2212C56.5789 15.2212 59.6881 20.9435 59.6881 27.9723C59.6881 30.6515 58.8106 32.2061 56.9924 32.2061C55.2497 32.2061 54.4172 31.0551 51.1083 25.7312Z" fill="#464A4D"/>
</g>
</svg>
