<svg width="172" height="48" viewBox="0 0 172 48" fill="none" xmlns="http://www.w3.org/2000/svg">
<g opacity="0.6">
<path d="M78.6908 28.6452L77.5363 32.2027C77.5046 32.3214 77.3943 32.4017 77.2717 32.3953H74.487C74.3187 32.3953 74.2712 32.299 74.2944 32.1552L79.1015 18.2861C79.2652 17.8146 79.3468 17.3185 79.3428 16.8195C79.3381 16.7339 79.4015 16.6598 79.4867 16.6512H83.3331C83.4492 16.6512 83.5014 16.6756 83.5257 16.7951L88.9791 32.1795C89.0267 32.2955 89.0035 32.3953 88.8631 32.3953H85.7384C85.621 32.4115 85.5091 32.3403 85.4739 32.2271L84.2486 28.6452H78.6908ZM79.5552 25.6412H83.354L82.9886 24.4642C82.4846 22.8636 81.8138 20.7805 81.4546 19.4394H81.4302C81.0462 21.0499 80.1806 23.6942 79.5552 25.6412ZM89.362 26.5254C89.3609 23.0886 91.9321 20.2041 96.332 20.2041C96.5234 20.2041 96.7648 20.2284 97.1256 20.2516V15.5164C97.1204 15.4704 97.1364 15.4245 97.1692 15.3917C97.191 15.3699 97.2187 15.3555 97.2483 15.3499L100.322 15.3482C100.438 15.3482 100.467 15.3958 100.467 15.4921V29.6976C100.461 30.2843 100.494 30.8707 100.564 31.4532C100.564 31.546 100.548 31.598 100.468 31.6394L100.395 31.669C98.8979 32.3053 97.2872 32.6325 95.6602 32.6309C92.1027 32.6309 89.362 30.6119 89.362 26.5254ZM97.1256 23.1118C96.8384 23.0196 96.5369 22.9803 96.2357 22.9957C95.3179 22.9286 94.4155 23.2589 93.758 23.9027C93.1552 24.4928 92.8115 25.2942 92.7951 26.1315L92.7988 26.3606C92.7988 28.7404 94.1692 29.7742 95.9955 29.7742C96.3776 29.7903 96.7597 29.7416 97.1256 29.6303V23.1118ZM114.225 26.1038L114.233 26.356C114.233 30.1304 111.781 32.6297 108.316 32.6297C104.205 32.6297 102.378 29.5294 102.378 26.4279C102.282 24.7913 102.874 23.1889 104.01 22.0071C105.146 20.8253 106.724 20.1713 108.363 20.2029C112.133 20.2029 114.125 22.9634 114.225 26.1038ZM105.768 26.3769C105.768 28.4921 106.753 29.838 108.363 29.838C109.755 29.838 110.815 28.636 110.815 26.4244C110.815 24.5494 110.046 22.9876 108.219 22.9876C106.827 22.9876 105.768 24.2373 105.768 26.3769ZM116.352 15.3482L119.284 15.347C119.476 15.347 119.524 15.3714 119.524 15.5397V20.4674C120.051 20.3262 120.591 20.241 121.134 20.2131L121.543 20.2029C123.087 20.1263 124.592 20.7028 125.689 21.7913C126.718 22.8117 127.3 24.194 127.316 25.6354L127.312 25.9243C127.312 30.4193 123.754 32.6309 120.102 32.6309C118.823 32.6397 117.55 32.4535 116.327 32.0786C116.24 32.0295 116.186 31.9382 116.184 31.8384V15.5164C116.184 15.4004 116.231 15.3482 116.352 15.3482ZM121.149 23.0359L120.943 23.0387C120.464 23.0331 119.986 23.098 119.525 23.2313V29.7452C119.72 29.7903 119.917 29.8197 120.116 29.8332L120.415 29.8415C121.376 29.8958 122.313 29.529 122.982 28.8366C123.65 28.1442 123.984 27.1949 123.896 26.2365C124.008 25.4017 123.742 24.5604 123.171 23.942C122.646 23.3752 121.915 23.05 121.149 23.0359ZM132.009 27.2923C132.125 28.6626 133.09 29.7928 135.446 29.7928C136.459 29.8115 137.465 29.6232 138.402 29.2393C138.475 29.1917 138.547 29.215 138.547 29.3553V31.6388C138.547 31.8071 138.5 31.879 138.379 31.9277C137.34 32.3929 136.215 32.6326 135.08 32.6328L134.701 32.6239C130.183 32.6239 128.595 29.5236 128.595 26.5428C128.595 23.3084 130.538 20.3487 134.132 20.2027L134.412 20.1971C135.793 20.1465 137.132 20.6815 138.097 21.6703C139.063 22.6591 139.567 24.0097 139.484 25.3894C139.501 25.9289 139.462 26.4686 139.368 26.9999C139.36 27.1032 139.278 27.1853 139.175 27.1925C138.558 27.2511 137.938 27.2838 137.319 27.2907L132.009 27.2923ZM135.134 24.9613C135.535 24.9763 135.937 24.9603 136.336 24.9137V24.7455C136.321 24.221 136.097 23.7244 135.712 23.3672C135.328 23.01 134.816 22.8222 134.292 22.8461C133.084 22.827 132.071 23.7555 131.985 24.9613H135.134Z" fill="#464A4D"/>
<path d="M48.2445 20.3421L55.6553 37.9253H50.7983L48.581 32.3257H43.1577L48.2445 20.3421ZM63.9758 10.0746V37.9219L52.3415 10.0746H63.9758ZM44.1463 10.0746L32.5073 37.9219V10.0746H44.1463Z" fill="#464A4D"/>
</g>
</svg>
