<svg width="172" height="48" viewBox="0 0 172 48" fill="none" xmlns="http://www.w3.org/2000/svg">
<g opacity="0.6">
<path fill-rule="evenodd" clip-rule="evenodd" d="M40.5421 17.1504C40.5421 20.5131 37.8144 23.2392 34.4495 23.2392C31.0844 23.2392 28.3567 20.5131 28.3567 17.1504C28.3567 13.7884 31.0844 11.0624 34.4495 11.0624C37.8144 11.0624 40.5421 13.7884 40.5421 17.1504ZM26.5347 24.7614C23.1697 24.7614 20.4419 27.4866 20.4419 30.8493C20.4419 34.2118 23.1697 36.9376 26.5347 36.9376C29.8997 36.9376 32.6277 34.2118 32.6277 30.8493C32.6277 27.4866 29.8997 24.7614 26.5347 24.7614ZM42.3642 24.7609C38.9992 24.7609 36.2714 27.4866 36.2714 30.8493C36.2714 34.2118 38.9992 36.9376 42.3642 36.9376C45.7291 36.9376 48.4569 34.2118 48.4569 30.8493C48.4569 27.4866 45.7291 24.7609 42.3642 24.7609Z" fill="#464A4D"/>
<path fill-rule="evenodd" clip-rule="evenodd" d="M69.8959 30.7772C69.9753 31.6804 70.6983 32.8302 71.9508 32.8302H72.6837C72.9677 32.8302 73.2006 32.5974 73.2006 32.3132V16.2075H73.1973C73.1825 15.9362 72.9583 15.7189 72.6837 15.7189H70.4128C70.1382 15.7189 69.9138 15.9362 69.8986 16.2075H69.8959V17.5162C68.5045 15.8024 66.3108 15.0911 64.1111 15.0911C59.111 15.0911 55.0575 19.1446 55.0575 24.1451C55.0575 29.1459 59.111 33.1996 64.1111 33.1996C66.3108 33.1996 68.7082 32.3466 69.8955 30.7753L69.8959 30.7772ZM64.1199 30.0308C60.9398 30.0308 58.3618 27.3959 58.3618 24.1451C58.3618 20.8949 60.9398 18.26 64.1199 18.26C67.2999 18.26 69.8777 20.8949 69.8777 24.1451C69.8777 27.3959 67.2999 30.0308 64.1199 30.0308Z" fill="#464A4D"/>
<path fill-rule="evenodd" clip-rule="evenodd" d="M106.894 30.7772C106.974 31.6804 107.696 32.8302 108.949 32.8302H109.682C109.966 32.8302 110.199 32.5974 110.199 32.3132V16.2075H110.196C110.181 15.9362 109.956 15.7189 109.682 15.7189H107.411C107.136 15.7189 106.912 15.9362 106.897 16.2075H106.894V17.5162C105.503 15.8024 103.309 15.0911 101.109 15.0911C96.1089 15.0911 92.0556 19.1446 92.0556 24.1451C92.0556 29.1459 96.1089 33.1996 101.109 33.1996C103.309 33.1996 105.706 32.3466 106.894 30.7753L106.894 30.7772ZM101.118 30.0308C97.938 30.0308 95.3598 27.3959 95.3598 24.1451C95.3598 20.8949 97.938 18.26 101.118 18.26C104.298 18.26 106.876 20.8949 106.876 24.1451C106.876 27.3959 104.298 30.0308 101.118 30.0308Z" fill="#464A4D"/>
<path fill-rule="evenodd" clip-rule="evenodd" d="M148.254 30.7772C148.333 31.6804 149.056 32.8302 150.308 32.8302H151.041C151.326 32.8302 151.558 32.5974 151.558 32.3132V16.2075H151.555C151.54 15.9362 151.316 15.7189 151.041 15.7189H148.77C148.496 15.7189 148.272 15.9362 148.256 16.2075H148.254V17.5162C146.862 15.8024 144.669 15.0911 142.469 15.0911C137.468 15.0911 133.415 19.1446 133.415 24.1451C133.415 29.1459 137.468 33.1996 142.469 33.1996C144.669 33.1996 147.066 32.3466 148.253 30.7753L148.254 30.7772ZM142.478 30.0308C139.298 30.0308 136.719 27.3959 136.719 24.1451C136.719 20.8949 139.298 18.26 142.478 18.26C145.658 18.26 148.236 20.8949 148.236 24.1451C148.236 27.3959 145.658 30.0308 142.478 30.0308Z" fill="#464A4D"/>
<path fill-rule="evenodd" clip-rule="evenodd" d="M130.544 22.997C130.544 18.2992 127.58 15.1299 122.854 15.1299C120.598 15.1299 118.749 16.4345 118.096 17.5551C117.955 16.6789 117.489 15.7578 116.047 15.7578H115.311C115.027 15.7578 114.795 15.9906 114.795 16.2748V32.3818H114.798C114.813 32.6528 115.037 32.8704 115.312 32.8704H117.583C117.617 32.8704 117.651 32.8663 117.684 32.8598C117.699 32.8569 117.713 32.8511 117.728 32.8469C117.745 32.8417 117.762 32.8377 117.778 32.8311C117.799 32.8228 117.817 32.8114 117.836 32.8011C117.845 32.7953 117.855 32.7913 117.864 32.7856C117.886 32.7709 117.907 32.7532 117.927 32.7354C117.93 32.7319 117.934 32.7298 117.938 32.7267C117.96 32.7048 117.981 32.6808 117.999 32.6559C118.056 32.5779 118.091 32.4833 118.096 32.3818H118.099V22.8678C118.099 20.3447 120.145 18.2992 122.668 18.2992C125.191 18.2992 127.237 20.3447 127.237 22.8678L127.239 30.8204L127.239 30.8175C127.239 30.8245 127.241 30.8319 127.241 30.8393V32.3818H127.243C127.258 32.6528 127.483 32.8704 127.757 32.8704H130.028C130.063 32.8704 130.097 32.8663 130.13 32.8598C130.144 32.8574 130.156 32.852 130.169 32.8482C130.188 32.843 130.207 32.8383 130.225 32.8311C130.243 32.8235 130.26 32.8126 130.278 32.8027C130.288 32.7968 130.3 32.7924 130.31 32.7856C130.331 32.7717 130.35 32.755 130.369 32.7386C130.374 32.7343 130.379 32.7309 130.384 32.7263C130.405 32.7056 130.424 32.6832 130.442 32.6597C130.443 32.6579 130.445 32.6565 130.446 32.6548C130.502 32.5774 130.536 32.484 130.542 32.3833C130.542 32.3826 130.542 32.3818 130.542 32.3818H130.545L130.544 22.997Z" fill="#464A4D"/>
<path fill-rule="evenodd" clip-rule="evenodd" d="M78.6261 28.4705C80.1421 29.5208 81.7968 30.0308 83.387 30.0308C84.902 30.0308 86.4682 29.2454 86.4682 27.8785C86.4682 26.0534 83.0553 25.7694 80.9112 25.0406C78.7666 24.3119 76.9195 22.8054 76.9195 20.3657C76.9195 16.6326 80.2457 15.0908 83.3502 15.0908C85.3171 15.0908 87.3468 15.7395 88.6625 16.6686C89.1157 17.012 88.8396 17.4062 88.8396 17.4062L87.5836 19.2001C87.4425 19.4022 87.1956 19.5767 86.8414 19.3581C86.487 19.1395 85.2442 18.2598 83.3502 18.2598C81.4561 18.2598 80.315 19.1345 80.315 20.2188C80.315 21.5189 81.7981 21.9279 83.5349 22.371C86.5617 23.187 89.8637 24.1677 89.8637 27.8785C89.8637 31.1676 86.7872 33.2003 83.387 33.2003C80.8103 33.2003 78.6165 32.4658 76.7767 31.1154C76.3934 30.7319 76.6611 30.3757 76.6611 30.3757L77.9109 28.5909C78.1652 28.2572 78.4858 28.3736 78.6261 28.4705Z" fill="#464A4D"/>
</g>
</svg>
