<svg width="24" height="24" viewBox="0 0 24 24" fill="none" xmlns="http://www.w3.org/2000/svg">
<path fill-rule="evenodd" clip-rule="evenodd" d="M11.974 2C6.465 2 2 6.465 2 11.974C2 16.38 4.857 20.119 8.821 21.439C9.32 21.529 9.5 21.222 9.5 20.958C9.5 20.721 9.492 20.093 9.489 19.262C7.639 19.6633 6.51867 19.2173 6.128 17.924C5.82667 17.156 5.45767 16.6697 5.021 16.465C4.41767 16.0523 4.44067 15.8507 5.09 15.86C5.758 15.9067 6.267 16.2493 6.617 16.888C7.507 18.412 8.953 17.972 9.519 17.717C9.61 17.072 9.87 16.632 10.154 16.383C7.94 16.132 5.612 15.276 5.612 11.453C5.612 10.366 6.001 9.474 6.636 8.778C6.535 8.525 6.19 7.51 6.735 6.138C7.293 5.95867 8.207 6.299 9.477 7.159C10.275 6.938 11.126 6.827 11.973 6.823C12.822 6.827 13.674 6.938 14.469 7.159C15.7397 6.29833 16.6537 5.958 17.211 6.138C17.756 7.51 17.414 8.525 17.31 8.778C17.95 9.474 18.334 10.365 18.334 11.453C18.334 15.286 16.004 16.128 13.782 16.375C14.137 16.683 14.457 17.291 14.457 18.221C14.457 19.555 14.445 20.631 14.445 20.958C14.445 21.225 14.623 21.535 15.132 21.437C19.094 20.115 21.948 16.379 21.948 11.974C21.948 6.465 17.483 2 11.974 2C8.30133 2 8.30133 2 11.974 2Z" fill="#464A4D"/>
</svg>
